<?xml version="1.0" encoding="utf-8"?>
<!-- Generator: Adobe Illustrator 26.2.1, SVG Export Plug-In . SVG Version: 6.00 Build 0)  -->
<svg version="1.1" id="Layer_1" xmlns="http://www.w3.org/2000/svg" xmlns:xlink="http://www.w3.org/1999/xlink" x="0px" y="0px"
	 viewBox="0 0 100 100" style="enable-background:new 0 0 100 100;" xml:space="preserve">
<style type="text/css">
	.st0{display:none;}
	.st1{display:inline;fill:#FFFFFF;}
	.st2{fill:#FDBE01;}
	.st3{fill:#FED92D;}
	.st4{fill:#FEDC3F;}
	.st5{fill:#FED54C;}
	.st6{fill:#39418E;}
	.st7{fill:#B73B3B;}
	.st8{fill:#404040;}
	.st9{fill:#606060;}
</style>
<g class="st0">
	<path class="st1" d="M49.5,97.7c-0.6-0.4-0.8-0.9-0.8-1.7c0-2.3,0-4.5,0-6.8c0-1.1,0.4-1.6,1.2-1.6s1.3,0.6,1.3,1.6
		c0,2.3,0,4.5,0,6.8c0,0.7-0.3,1.1-0.7,1.6C50.2,97.7,49.9,97.7,49.5,97.7z"/>
	<path class="st1" d="M74.4,77.6c0.5,0,0.8,0.3,1.1,0.5c1.7,1.7,3.3,3.3,5,5c0.7,0.7,0.7,1.4,0.1,2c-0.5,0.5-1.3,0.5-1.9-0.1
		c-1.7-1.7-3.4-3.4-5.1-5.1c-0.4-0.4-0.6-1-0.3-1.5C73.4,77.9,73.8,77.6,74.4,77.6z"/>
	<path class="st1" d="M19.1,84.1c-0.1-0.4,0.2-0.8,0.5-1.1c1.6-1.6,3.3-3.3,4.9-4.9c0.7-0.7,1.5-0.7,2-0.2c0.5,0.6,0.4,1.3-0.2,2
		c-1.7,1.7-3.3,3.3-5,5c-0.4,0.4-0.9,0.6-1.5,0.4C19.4,85.1,19.1,84.8,19.1,84.1z"/>
	<path class="st1" d="M88.2,55.9c-1.2,0-2.4,0-3.6,0c-0.9,0-1.4-0.5-1.4-1.3s0.5-1.3,1.4-1.3c2.4,0,4.8,0,7.3,0
		c0.9,0,1.4,0.5,1.4,1.3s-0.5,1.3-1.5,1.3C90.6,55.9,89.4,55.9,88.2,55.9z"/>
	<path class="st1" d="M11.9,53.2c1.2,0,2.4,0,3.5,0c0.9,0,1.4,0.4,1.5,1.2c0,0.8-0.5,1.4-1.4,1.4c-2.4,0-4.8,0-7.2,0
		c-0.9,0-1.5-0.6-1.5-1.3c0-0.8,0.6-1.2,1.5-1.2C9.6,53.2,10.7,53.2,11.9,53.2z"/>
</g>
<g class="st0">
	<path class="st1" d="M22.6,54.5c0.4-9.5,4.3-17,12-22.5c0.6-0.4,0.9-0.9,0.9-1.7c-0.1-1.7,0-3.5,0-5.2c0-2,0.9-3.6,2.7-4.6
		c0.5-0.3,0.6-0.6,0.6-1.1c0-2.3,0-4.6,0.1-7c0.3-5.3,5.2-9.9,10.5-10.1C55.8,2,61.5,7.2,61.2,14.2c-0.1,1.8,0,3.7,0,5.5
		c0,0.5,0.1,0.7,0.5,0.9c1.7,1,2.5,2.6,2.5,4.5c0,1.8,0,3.5,0,5.3c0,0.5,0.2,0.8,0.6,1.1C71.5,36,75.7,42.2,77,50.1
		c2.3,14.3-6.8,27.6-20.6,30.8c-14.6,3.5-29-5.3-32.8-19.8C23,59.1,22.7,56.8,22.6,54.5z M49.9,22.5c-3,0-6,0-9,0
		c-1.8,0-2.7,1-2.7,2.7c0,1.9-0.1,3.8,0,5.7c0.1,1.4-0.5,2.2-1.6,3c-8.4,5.3-12.7,15.6-10.8,25.3c3.1,16,20.4,24.7,35.1,17.6
		c10.3-5,15.8-16.1,13.4-27.3c-1.5-7-5.4-12.4-11.5-16.1c-0.8-0.5-1.1-1-1.1-2c0.1-2,0-3.9,0-5.9c0-2.1-0.9-3-3-3
		C55.7,22.5,52.8,22.5,49.9,22.5z M41.6,12.2c0.1,0,0.1,0.1,0.2,0.1c5.4,0,10.8,0,16.2,0c0.6,0,0.6-0.2,0.5-0.7
		c-0.8-3.9-4.6-6.7-8.9-6.6C45.6,5.1,42.1,8.3,41.6,12.2z M50.1,14.9c-2.6,0-5.3,0-7.9,0c-0.6,0-0.8,0.1-0.8,0.8c0,1.2,0,2.4,0,3.6
		c0,0.5,0.2,0.7,0.7,0.7c5.3,0,10.6,0,15.9,0c0.6,0,0.7-0.2,0.6-0.7c0-1.2,0-2.4,0-3.6c0-0.6-0.2-0.7-0.7-0.7
		C55.3,14.9,52.7,14.9,50.1,14.9z"/>
	<path class="st1" d="M49.1,75.8C39,75.4,30.4,67.7,29,57.9C28.9,57,28.8,56,28.7,55c-0.1-1.1,0.4-1.7,1.2-1.8
		c0.8-0.1,1.3,0.5,1.4,1.6c0.4,7.2,3.6,12.6,9.8,16.1c2.5,1.4,5.2,2.1,8.1,2.2c1.5,0,2.2,0.5,2.1,1.4C51.3,75.5,50.6,75.8,49.1,75.8
		C49,75.8,49,75.8,49.1,75.8z"/>
</g>
<path class="st2" d="M53.1,2.1c0.2,0,0.5,0,0.7,0c1.4,0.2,2.9,0.2,4.3,0.3c3.3,0.4,6.4,1.4,9.4,2.5c5,2,9.6,4.7,13.6,8.2
	c7.5,6.5,12.6,14.4,15.3,24c0.9,3.4,1.3,6.9,1.3,10.4c0.1,3.4,0.1,6.8-0.3,10.2c-0.4,3.1-1.2,6.1-2.3,9c-2,5.4-4.9,10.2-8.6,14.5
	c-3.6,4.2-7.9,7.7-12.7,10.5c-3.5,2.1-7.3,3.6-11.3,4.7c-4,1.1-8.1,1.3-12.3,1.3c-0.3,0-0.5,0-0.6-0.3c-0.2-0.4-0.2-0.9-0.2-1.4
	c0-4.7,0-9.4,0-14.1c0-0.5,0-1,0.2-1.5c0.6-0.5,1.4-0.4,2-0.6c6.1-0.3,11.4-2.5,16.1-6.4c1.2-1,2.4-2.1,3.4-3.3
	c0.4-0.5,0.4-0.9-0.1-1.3c-0.8-0.5-1.5-1.2-2.3-1.8c-0.5-0.4-0.9-0.5-1.4,0.1c-1.8,2-3.7,3.7-6.1,5c-3.2,1.7-6.6,2.8-10.2,2.8
	c-0.6,0-1.1,0-1.4-0.6c-0.1-0.5-0.1-0.9-0.1-1.4c0-10.5,0-21.1,0-31.6c0-0.6-0.3-1.8,0.1-2.3c0.9-0.4,2,0.3,2.9,0.4
	c0.5,0.2,0.5,0.7,0.5,1.1c0,1.4,0,2.7,0,4.1c0,6.8,4.8,12.3,11.5,13.3c1.8,0.3,3.7,0.1,5.6,0.1c1.6,0,3.1,0.1,4.7-0.2
	c5.8-1.1,10.1-5.8,10.9-11.7c0.5-4,1.2-8,1.8-12c0.3-2,0.1-2.2-1.9-2c-2.3,0.3-4.5,0.3-6.8,0.5c-3.4,0.2-6.8,0.5-10.2,0.7
	c-1.9,0.1-3.7,0.3-5.6,0.4c-3.9,0.3-7.8,0.6-11.6,0.4c-0.6,0-1.1,0.1-1.5-0.5c-0.2-0.5-0.2-1-0.2-1.5c0-9.6,0-19.2,0-28.8
	c0-0.6-0.1-1.2,0.4-1.6c0.9,0,1.9,0,2.8,0C52.9,2.2,53,2.2,53.1,2.1z"/>
<path class="st3" d="M49.9,80.6c0,5.7,0,11.4,0,17.1c-0.8,0.3-1.7,0.1-2.5,0.1c-6.6,0.1-12.7-1.6-18.6-4.5
	c-4.5-2.2-8.6-5.1-12.2-8.6c-4.1-3.9-7.4-8.3-9.9-13.3c-1.9-3.9-3.4-8-4.1-12.2c-0.3-1.6-0.3-3.2-0.4-4.7c0-0.2,0.1-0.4-0.1-0.6
	c0-0.7,0-1.4,0-2.1c0.1-0.4,0.1-0.7,0-1.1c0-0.5,0-1,0-1.5c0.1-0.4,0.1-0.7,0-1.1c0-0.7,0-1.5,0-2.2c0.2-1.3,0.2-2.6,0.3-4
	c0.4-3.5,1.5-6.9,2.8-10.1c2.2-5.6,5.5-10.5,9.7-14.9c4-4.2,8.5-7.6,13.6-10.1c3.8-1.9,7.8-3.3,12.1-4.1c1.6-0.3,3.2-0.3,4.8-0.4
	c0.2,0,0.4,0.1,0.6-0.1c0.7,0,1.4,0,2.1,0c0.4,0.1,0.9,0.1,1.3,0c0.2,0,0.4,0,0.6,0c0,10.7,0,21.3,0,32c0,0.1,0,0.2-0.1,0.3
	c-0.2,0.2-0.6,0.3-0.9,0.3c-2.4,0.1-4.7,0-7.1-0.2c-2.2-0.2-4.4-0.3-6.6-0.5c-3.4-0.3-6.8-0.5-10.2-0.7c-2.1-0.2-4.3-0.3-6.4-0.4
	c-1.5-0.1-3-0.1-4.6-0.3c-0.2,0-0.5,0-0.7,0c-1,0-1.1,0.2-1,1.1c0.4,2.7,0.8,5.4,1.2,8.1c0.3,1.8,0.5,3.6,0.8,5.4
	c1,5.3,4,8.8,9,10.6c1.2,0.4,2.5,0.6,3.8,0.6c2.1,0,4.2,0,6.3,0c6.7,0,12.3-5,13.2-11.6c0.2-1.8,0.1-3.7,0.2-5.5
	c0-0.6-0.1-1.4,0.7-1.6c0.8-0.2,1.7-0.8,2.4-0.1c0,11.2,0,22.7,0,33.8c0,0.5,0,1,0,1.5c0,0.1,0,0.2-0.1,0.3
	c-0.2,0.2-0.6,0.3-0.9,0.2c-6.3-0.4-11.7-2.7-16-7.4c-1.3-1.4-1-1.3-2.5-0.2c-0.5,0.4-1.1,0.9-1.6,1.3c-0.6,0.4-0.7,0.8-0.2,1.3
	c1.8,2.2,4,4,6.5,5.6c3.6,2.2,7.5,3.5,11.6,4c0.8,0.1,1.6-0.1,2.3,0.2C49.5,80.2,49.8,80.2,49.9,80.6z"/>
<path class="st4" d="M49.4,2.1c-0.4,0.3-0.9,0.3-1.3,0C48.5,2.1,48.9,2.1,49.4,2.1z"/>
<path class="st4" d="M2.1,48.1c0.3,0.4,0.3,0.7,0,1.1C2.1,48.8,2.1,48.4,2.1,48.1z"/>
<path class="st4" d="M2.1,50.7c0.3,0.4,0.3,0.7,0,1.1C2.1,51.4,2.1,51.1,2.1,50.7z"/>
<path class="st5" d="M53.1,2.1c-0.1,0.2-0.2,0.1-0.4,0C52.9,2.1,53,2.1,53.1,2.1z"/>
<path class="st6" d="M49.9,34.2C49.9,34.2,49.9,34.2,49.9,34.2c4.3,0.2,8.7-0.3,13-0.6c3.2-0.2,6.3-0.5,9.5-0.7
	c4.9-0.3,9.9-0.6,14.8-1c0.9-0.1,0.9,0.3,0.8,0.9c-0.5,3.6-1.1,7.1-1.6,10.7c-0.3,2.1-0.5,4.3-1.2,6.3c-2,5.4-6.9,8.8-12.8,8.9
	c-2.4,0.1-4.9,0-7.3-0.1c-6-0.3-11.6-5.5-12.4-11.5c-0.3-2.5-0.1-4.9-0.2-7.4c-0.7-0.2-1.4-0.1-2.1-0.1c-0.5,0-0.8-0.2-0.8-0.7
	c-0.1-1.4-0.1-2.8,0-4.3C49.6,34.6,49.8,34.4,49.9,34.2z"/>
<path class="st7" d="M49.9,39.7c-2.5,0-2.6-0.2-2.6,2.4c0,2.2,0.1,4.4-0.5,6.6c-1.6,5.9-6.9,10-13,10.1c-2.8,0-5.6,0.3-8.3-0.1
	c-6.3-1-10.8-5.7-11.7-12.1c-0.6-4.5-1.3-9-2-13.5c-0.2-1.1-0.2-1.1,0.9-1c7,0.5,14.1,1,21.1,1.4c5.3,0.3,10.6,0.9,15.9,0.8
	c0,1.5,0.1,2.9,0,4.4"/>
<path class="st8" d="M49.9,75c0,0,0-0.1,0-0.1c7,0,12.8-2.8,17.3-8.1c0.5-0.6,0.8-0.6,1.4-0.1c1,0.9,2.1,1.7,3.2,2.5
	c0.4,0.3,0.5,0.5,0.2,0.9c-4.7,5.6-10.6,9.1-17.9,10.2c-0.7,0.1-1.4,0.2-2.1,0.2c-2.4,0.3-2.5,0.2-2.5-2.1c0-0.7,0-1.5,0-2.2
	C49.5,75.6,49.6,75.2,49.9,75z"/>
<path class="st9" d="M49.9,75c0,1.4,0.1,2.9,0,4.3c0,0.9,0.2,1.3,1.1,1.2c0.3,0,0.6,0,0.9,0c-0.7,0.3-1.4,0.1-2.1,0.2
	c-2.6-0.2-5.1-0.4-7.6-1.1c-5.7-1.7-10.5-4.8-14.3-9.4c-0.4-0.4-0.4-0.7,0.1-1c1.1-0.8,2.1-1.6,3.2-2.5c0.5-0.4,0.8-0.4,1.2,0.1
	c3.2,3.9,7.3,6.4,12.1,7.6C46.4,74.7,48.2,74.8,49.9,75z"/>
</svg>
