<?xml version="1.0" encoding="utf-8"?>
<!-- Generator: Adobe Illustrator 26.0.3, SVG Export Plug-In . SVG Version: 6.00 Build 0)  -->
<svg version="1.1" id="레이어_1" xmlns="http://www.w3.org/2000/svg" xmlns:xlink="http://www.w3.org/1999/xlink" x="0px"
	 y="0px" viewBox="0 0 24 24" style="enable-background:new 0 0 24 24;" xml:space="preserve">
<style type="text/css">
	.st0{fill:none;}
	.st1{fill:#232323;}
	.st2{fill:#AA0000;}
</style>
<path class="st0" d="M0,0h24v24H0V0z"/>
<path class="st1" d="M14.6,8.8c0,1.4-1.1,2.5-2.5,2.5v10.5c0,0,7-7.8,7-13c0-3.9-3.1-7-7-7v4.5C13.4,6.3,14.6,7.4,14.6,8.8z"/>
<path class="st2" d="M12.1,11.3C12.1,11.3,12.1,11.3,12.1,11.3c-1.4,0-2.5-1.1-2.5-2.5s1.1-2.5,2.5-2.5c0,0,0,0,0,0V1.8c0,0,0,0,0,0
	c-3.9,0-7,3.1-7,7c0,5.2,7,13,7,13l0,0V11.3z"/>
</svg>
