<?xml version="1.0" encoding="utf-8"?>
<!-- Generator: Adobe Illustrator 26.2.1, SVG Export Plug-In . SVG Version: 6.00 Build 0)  -->
<svg version="1.1" id="Layer_1" xmlns="http://www.w3.org/2000/svg" xmlns:xlink="http://www.w3.org/1999/xlink" x="0px" y="0px"
	 viewBox="0 0 100 100" style="enable-background:new 0 0 100 100;" xml:space="preserve">
<style type="text/css">
	.st0{display:none;fill:#FF7064;}
	.st1{display:none;fill:#FFDAD7;}
	.st2{display:none;fill:#FFB7B0;}
</style>
<path class="st0" d="M37.2,50.1c0-10.1,4.9-19.1,12.5-24.6c-5.1-3.7-11.3-5.9-18-5.9c-16.9,0-30.6,13.7-30.6,30.6
	s13.7,30.6,30.6,30.6c6.7,0,13-2.2,18-5.9C42.1,69.1,37.2,60.2,37.2,50.1z"/>
<path class="st1" d="M67.7,19.5c-6.7,0-13,2.2-18,5.9C57.3,31,62.2,39.9,62.2,50s-4.9,19.1-12.5,24.6c5.1,3.7,11.3,5.9,18,5.9
	c16.9,0,30.6-13.7,30.6-30.6S84.6,19.5,67.7,19.5z"/>
<path class="st2" d="M62.3,50.1c0-10.1-4.9-19.1-12.5-24.6C42.1,31,37.2,39.9,37.2,50.1s4.9,19.1,12.5,24.6
	C57.3,69.1,62.3,60.2,62.3,50.1z"/>
<image style="overflow:visible;" width="512" height="512" xlink:href="C:\Users\h1998\Downloads\compact-disc.png"  transform="matrix(0.1883 0 0 0.1883 1.7951 1.7951)">
</image>
</svg>
