<?xml version="1.0" encoding="utf-8"?>
<!-- Generator: Adobe Illustrator 26.2.1, SVG Export Plug-In . SVG Version: 6.00 Build 0)  -->
<svg version="1.1" id="Layer_1" xmlns="http://www.w3.org/2000/svg" xmlns:xlink="http://www.w3.org/1999/xlink" x="0px" y="0px"
	 viewBox="0 0 100 100" style="enable-background:new 0 0 100 100;" xml:space="preserve">
<style type="text/css">
	.st0{display:none;}
	.st1{display:inline;fill:#C4C8F6;}
	.st2{display:inline;fill:#E0E3FA;}
	.st3{display:inline;fill:#CCD0F7;}
	.st4{display:inline;fill:#ECEDFC;}
	.st5{display:inline;fill:#EAECFB;}
	.st6{display:inline;fill:#E3E5FA;}
	.st7{display:inline;fill:#A7AEF0;}
	.st8{display:inline;fill:#B658CD;}
	.st9{display:inline;fill:#C980DB;}
	.st10{fill:#B4D4F4;}
	.st11{fill:#EDF6FE;}
	.st12{fill:#CAE2F9;}
	.st13{fill:#FEEFA5;}
	.st14{fill:#FEE673;}
</style>
<g class="st0">
	<path class="st1" d="M98,53.7c-0.2,3.4-0.8,6.7-1.8,9.9c-0.5,1.8-1,3.7-2,5.3c-0.5,0.3-0.9-0.1-1.3-0.3c-5.5-2.9-11.1-5.5-16.6-8.4
		c-2.3-1.2-4.6-2.3-6.9-3.5c-0.4-0.2-0.8-0.3-1-0.8c0.1-1.3,0.6-2.6,0.7-3.9c0.4-4.4-0.4-8.4-2.7-12.2c-0.8-1.3-1.9-2.4-2.7-3.7
		c-0.1-0.5,0.2-0.7,0.5-1c3.3-3.3,6.5-6.7,9.9-9.8c3-2.8,5.8-5.8,8.8-8.7c0.3-0.3,0.6-0.8,1.3-0.6c1.9,1.6,3.4,3.5,4.8,5.5
		c4.7,6.5,7.6,13.7,8.7,21.6c0.2,1.1,0.2,2.2,0.2,3.3c0,0.4,0,0.8,0,1.2c0.1,0.7-0.1,1.4,0.1,2c0,0.9,0,1.8,0,2.6
		C97.9,52.6,98.2,53.2,98,53.7z"/>
	<path class="st2" d="M84.3,15.9c-0.4,0-0.5,0.3-0.8,0.5C77.3,22.5,71.2,28.6,65,34.7c-0.4,0.3-0.8,0.6-1,1.1
		c-0.1,0.1-0.3,0.1-0.4,0c-1.6-1.5-3.3-2.8-5.3-3.7c-4.3-2-8.7-2.4-13.3-1.2c-0.4,0.1-0.7,0.3-1.1,0.2c-0.5-0.1-0.6-0.5-0.8-0.9
		c-3.9-7.8-7.8-15.6-11.7-23.4c-0.2-0.3-0.4-0.6-0.2-1c1.4-0.8,3-1.3,4.6-1.8c3.5-1.1,7-1.8,10.6-2c0.6-0.3,1.3,0.1,1.9-0.2
		c1.1,0,2.3,0,3.4,0c0.5,0.2,1.1,0,1.6,0.1c5.7,0,11,1.5,16.2,3.7c5.4,2.3,10.1,5.4,14.3,9.5C84,15.3,84.3,15.5,84.3,15.9z"/>
	<path class="st3" d="M98.2,49.5c-0.4-0.7-0.1-1.4-0.2-2.1c0.1-0.1,0.1-0.1,0.2,0C98.2,48.2,98.2,48.8,98.2,49.5z"/>
	<path class="st4" d="M48.2,1.8C47.6,2.2,47,1.9,46.3,2c0-0.1,0-0.1,0-0.2C47,1.8,47.6,1.8,48.2,1.8z"/>
	<path class="st5" d="M53.3,1.8c0,0.1,0,0.1,0,0.2c-0.6-0.1-1.2,0.2-1.7-0.2C52.2,1.8,52.7,1.8,53.3,1.8z"/>
	<path class="st2" d="M98,53.7c0.1-0.5-0.2-1,0.2-1.5c0,0.5,0,1,0,1.5C98.1,53.7,98.1,53.7,98,53.7z"/>
	<path class="st6" d="M98.2,47.5c-0.1,0-0.1,0-0.2,0c0-0.4,0-0.9,0-1.3c0.1,0,0.1,0,0.2,0C98.2,46.6,98.2,47,98.2,47.5z"/>
	<path class="st1" d="M68.7,94.1c-1.7,1-3.6,1.5-5.4,2c-5.2,1.6-10.5,2.1-15.9,1.9c-5.4-0.3-10.6-1.4-15.6-3.5
		c-4.9-2-9.4-4.7-13.3-8.2c-0.8-0.7-1.7-1.5-2.4-2.3c-0.1-0.3,0.1-0.5,0.3-0.7c0.1-0.1,0.2-0.2,0.3-0.3c6.2-6.1,12.1-12.5,18.3-18.5
		c0.3-0.3,0.6-0.8,1.2-0.7c1.3,0.8,2.4,1.9,3.7,2.7c4.6,2.7,9.4,3.4,14.6,2.2c0.5-0.1,1-0.3,1.6-0.3c0.4,0.2,0.6,0.6,0.7,0.9
		c3.4,6.7,6.8,13.5,10.1,20.2c0.6,1.2,1.1,2.4,1.7,3.6C68.7,93.4,69,93.7,68.7,94.1z"/>
	<path class="st2" d="M36,63.8c-0.8,0.6-1.4,1.3-2.1,2c-2.6,2.6-5.2,5.1-7.7,7.7c-3.2,3.4-6.6,6.6-9.8,10c-0.1,0.1-0.2,0.3-0.4,0.4
		c-2.6-2.5-4.8-5.4-6.7-8.5c-2.9-4.6-4.9-9.5-6.1-14.8c-0.6-2.5-0.9-4.9-1.1-7.5C2,51.5,1.9,49.7,2,48c0.2-5.8,1.4-11.4,3.7-16.8
		c0-0.1,0.1-0.2,0.2-0.3c0.4-0.3,0.7,0,1,0.1c6,3,12.1,6,18.1,9.1c1.6,0.8,3.2,1.6,4.9,2.4c0.5,0.3,1.1,0.4,1.4,1
		c0,1.3-0.6,2.5-0.7,3.9c-0.6,5.8,1,10.8,4.9,15.1c0.2,0.3,0.5,0.5,0.7,0.8C36.1,63.5,36.1,63.7,36,63.8z"/>
	<path class="st7" d="M68.7,94.1c-0.7-1.5-1.3-3-2.1-4.5c-3.5-7-7-14-10.5-21.1c0.1-0.4,0.5-0.5,0.9-0.6c4.5-1.8,7.9-4.9,10.2-9.2
		c0.4-0.7,0.6-1.4,0.9-2.1c0.1-0.3,0.1-0.7,0.5-0.6c1.2,0.8,2.5,1.3,3.8,2c5.9,3,11.8,5.9,17.6,8.9c1.4,0.7,2.7,1.5,4.1,2
		c-0.7,2.3-2,4.2-3.2,6.2c-5.2,8.6-12.6,14.6-21.7,18.7C69.2,94,68.9,94,68.7,94.1z"/>
	<path class="st1" d="M31.1,43.5c-1.5-0.8-3.1-1.6-4.6-2.4c-5.1-2.6-10.2-5.1-15.3-7.7c-1.7-0.9-3.4-1.8-5.2-2.5
		c0.8-2.4,2.1-4.6,3.4-6.7c2.2-3.6,4.9-6.8,8-9.7c4.1-3.7,8.5-6.8,13.7-8.8c0.1,0.2,0.1,0.5,0.3,0.7c4,8,8,15.9,11.9,23.9
		c0.1,0.2,0.3,0.4,0.4,0.6c0,0.4-0.3,0.4-0.6,0.5c-2.4,0.9-4.6,2.3-6.5,4c-2.2,2-3.8,4.4-4.9,7.2C31.6,43,31.6,43.5,31.1,43.5z"/>
	<path class="st8" d="M68.7,55.9c-0.8,2-1.7,3.9-3,5.6c-2.4,3.1-5.3,5.3-8.9,6.7c-0.2,0.1-0.5,0.2-0.7,0.3c-2.1,0.6-4.3,1-6.5,0.9
		c-5-0.1-9.3-1.9-13-5.2c-0.2-0.2-0.4-0.3-0.6-0.5c0-0.1,0-0.2-0.1-0.4c0.1-0.3,0.3-0.5,0.6-0.7c2.1-2.1,4.3-4.3,6.4-6.4
		c0.3-0.3,0.6-0.7,1.1-0.7c0.3,0.1,0.4,0.2,0.6,0.4c3.4,2.8,8,2.5,11.1-0.6c3-3,3.2-7.7,0.5-11c-0.2-0.2-0.3-0.4-0.4-0.6
		c-0.1-0.4,0.2-0.6,0.4-0.9c2.3-2.3,4.5-4.6,6.8-6.8c0.2-0.2,0.3-0.3,0.5-0.4c0.1,0,0.2,0,0.4,0.1c1.9,2.2,3.6,4.5,4.5,7.2
		c1.4,4.1,1.6,8.2,0.3,12.3C68.7,55.5,68.7,55.7,68.7,55.9z"/>
	<path class="st9" d="M63.6,35.8c-0.9,1.2-2,2.1-3,3.1c-1.6,1.6-3.1,3.2-4.7,4.8c-0.1,0.1-0.2,0.1-0.3,0c-1.4-1-2.8-1.8-4.5-2.1
		c-3.2-0.5-6.4,1-8.3,4c-1.6,2.5-1.4,6.2,0.3,8.6c0.3,0.4,0.6,0.8,0.9,1.2c0,0.1,0,0.2,0,0.3c-2.4,2.3-4.7,4.7-7.1,7
		c-0.3,0.3-0.5,0.6-0.8,0.7c-2.9-2.7-4.6-6-5.4-9.9c-0.8-3.4-0.4-6.8,0.6-10.1c0.8-2,1.7-3.9,3-5.6c2.4-3.2,5.5-5.5,9.3-6.8
		c0.1,0,0.2-0.1,0.3-0.2c2.3-0.6,4.7-1.1,7.1-0.9C55.8,30.4,60.2,32.1,63.6,35.8z"/>
	<path class="st1" d="M43.9,55.7c0-0.1,0-0.1,0-0.2c0.1-0.4,0.4-0.6,0.6-0.8c3.5-3.5,7-7,10.4-10.4c0.2-0.2,0.4-0.5,0.8-0.6
		c0.1,0,0.1,0,0.2,0c1.8,1.9,2.6,4.1,2.5,6.7c-0.2,3.9-4,7.6-7.8,7.7C48,58.3,45.8,57.5,43.9,55.7z"/>
	<path class="st2" d="M55.7,43.7c-0.7,0.7-1.4,1.5-2.1,2.2c-3,3-6,6-8.9,8.9c-0.2,0.2-0.5,0.5-0.8,0.7c-3-2.8-3.3-8-0.5-11.2
		c3.1-3.7,8.4-4.1,12.1-1C55.5,43.4,55.6,43.6,55.7,43.7z"/>
</g>
<g>
	<path class="st10" d="M76.2,43c2.3,0,4.6-0.1,6.9,0c3.9,0.2,7.8,0.8,11.3,2.5c1.7,0.8,3.1,1.9,3.8,3.7c0,0.5,0,1,0,1.5
		c-1.3,3-4.1,4-7,4.9c-3.9,1.2-8,1.4-12,1.4c-1,0-2,0-3,0c-0.3,0.2-0.6,0.1-0.9-0.1c-4.4-2.2-9-4-13.6-5.6c-0.7-0.2-0.8-0.7-0.8-1.3
		c0-0.6,0.2-1.1,0.8-1.3c4.8-1.6,9.5-3.6,14.1-5.8C75.9,42.9,76.1,42.9,76.2,43z"/>
	<path class="st11" d="M51,1.8c1,0.5,1.8,1.2,2.4,2.1c0.1,0.8-0.1,1.5-0.7,2c-1.4,1.3-2.3,2.9-2.8,4.7c-0.9,3-1.3,6.1-1.4,9.2
		c0,1,0,2.1,0,3.1c-0.1,4.7,0.4,9.3,1,13.9c0.1,1,0,1.8-0.9,2.4c-0.9,0.3-1.8,0.5-2.7,0.9c-0.3,0.1-0.5,0.2-0.8-0.1
		c-0.7-2.1-0.9-4.3-1.2-6.4c-0.5-3.1-0.7-6.2-1-9.3c0-0.2,0-0.4,0.1-0.5c0.3-0.4,0.2-0.8,0.1-1.2c-0.2-1.4-0.2-2.7,0-4.1
		c0.2-1.2,0.1-2.4,0.2-3.6c0.4-3.4,1-6.8,2.7-9.8c0.7-1.4,1.8-2.4,3.1-3.1C49.7,1.8,50.3,1.8,51,1.8z"/>
	<path class="st12" d="M75.8,43c-2.3,1.4-4.7,2.4-7.2,3.4c-2.3,0.9-4.5,1.8-6.8,2.5c-0.5,0.2-0.7,0.4-0.6,1c0.1,0.4-0.2,0.9,0.5,1.1
		c4.9,1.6,9.7,3.6,14.4,5.9c0.1,0,0.1,0,0.2,0c2,1.3,4.2,2.4,6.2,3.7c2.9,2,5.6,4.2,7.9,7c1,1.2,1.7,2.6,1.9,4.2
		c0.3,1.5-0.7,3-2.1,3.6c-0.7,0.3-1.4,0.5-2.2,0.5c-0.5,0.2-1.1,0.1-1.6,0.1c-0.1-0.2-0.1-0.3,0-0.4c0.7-1.3,0.5-1.9-0.9-2.2
		c-4.9-1.1-9.4-3.2-13.6-5.9c-2.6-1.7-5.1-3.4-7.6-5.3c-0.2-0.2-0.5-0.3-0.7-0.5c-0.8-0.4-1.5-0.1-1.8,0.8c-0.1,0.2-0.1,0.5-0.2,0.7
		c-0.2,0.2-0.4,0.1-0.6-0.1c-1.6-1.2-3-2.5-4.5-3.8c-0.1-0.1-0.1-0.2-0.2-0.3c0.1-0.4,0.4-0.6,0.7-0.8c3.8-3.1,4.8-8.2,3.1-12.5
		c-0.7-1.7-1.8-3-3.1-4.1c-0.3-0.2-0.6-0.4-0.6-0.8c0.2-0.7,0.8-0.9,1.2-1.3c0.9-0.9,2-1.6,3-2.5c0.3-0.2,0.5-0.6,1-0.5
		c0.1,0.1,0.1,0.2,0.1,0.4c-0.3,0.8,0.2,1.4,0.7,1.9c0.4,0.4,0.9,0.3,1.3,0c1.3-1.1,2.7-2.1,4.1-3.1c1.1-0.9,2.5-1.5,3.7-2.4
		c0.4-0.2,0.7-0.5,0.8-0.9c0.2-0.4,0.5-0.6,0.9-0.7c0.2,0,0.5-0.1,0.6-0.3c0.1-0.1,0.3-0.2,0.5-0.2c0.7,0.2,1-0.1,1.2-0.7
		c0.5-0.6,1.2-0.8,1.9-1c0.7,0.2,1.3,0.1,1.5-0.7c0.4-0.4,1-0.5,1.5-0.6c1.2,0,2.4-0.2,3.3-1.1c0.6-0.2,1.3-0.4,1.9-0.5
		c0.5-0.1,1,0.4,1.4-0.2c0.3-0.5,0.4-1.1,0.2-1.6c-0.1-0.3-0.4-0.6,0-0.9c0.3,0,0.6-0.1,0.8,0.1c0.3,0.1,0.6,0.1,0.9,0.2
		c0.7,0.5,1.6,0.7,2.4,1.1c0.3,0.5,0.7,0.9,0.8,1.5c0.1,0.5,0.1,1,0,1.5l0,0c-0.3,0.2-0.3,0.5-0.2,0.8c-0.5,1.6-1.5,2.9-2.5,4.1
		c-0.4,0.2-0.9,0.3-0.9,1c-0.2,0.3-0.4,0.6-0.8,0.7c-0.6,0.2-0.9,0.6-1.1,1.1c-0.1,0.1-0.1,0.1-0.2,0.2c-0.6,0.2-1.1,0.7-1.5,1.1
		c-0.2,0.2-0.5,0.4-0.7,0.6c-0.3,0.2-0.9,0.1-1,0.7c-0.6,0.4-1.1,0.8-1.7,1.1c-0.9,0.3-1.6,0.7-2.2,1.3c-0.7,0.4-1.4,0.8-2.1,1.1
		C76.7,42.5,76.1,42.5,75.8,43z"/>
	<path class="st12" d="M30.8,69.2c-1.9,1.1-3.8,2.2-5.8,3.2c-2.7,1.4-5.5,2.5-8.5,3.2c-0.2-0.3-0.2-0.3-0.1-0.5
		c0.2-0.5,0.1-0.9-0.3-1.2c-1.6-1.2-1.6-2.8-1.1-4.5c0.8-2.5,2.5-4.5,4.5-6.3c1.6-1.5,3.3-2.8,5.2-4c0.4-0.3,0.8-0.6,0.7-1.1
		c-0.1-0.5-0.5-0.6-1-0.8c-0.1,0-0.2-0.1-0.2-0.2c0-0.4,0.4-0.5,0.7-0.7c4.2-2.1,8.6-3.9,13.1-5.4c0.3-0.1,0.6-0.2,0.9-0.1
		c0.4,0.2,0.4,0.6,0.5,1c0.4,2,1.2,3.9,2.6,5.4c0.4,0.5,0.9,0.9,1.4,1.3c0.2,0.2,0.5,0.4,0.5,0.7c-0.8,1.1-2,1.9-3,2.8
		c-2.9,2.5-6,4.8-9.2,6.9C31.4,69,31.2,69.3,30.8,69.2z"/>
	<path class="st12" d="M16.5,24.4c2.3,0.5,4.4,1.3,6.5,2.2c2.6,1.2,5,2.5,7.4,4c0.1,0.1,0.3,0.1,0.4,0.2c0.3-0.1,0.5,0.1,0.7,0.3
		c4.1,2.7,8,5.8,11.7,9c0.2,0.2,0.5,0.4,0.5,0.7c-0.1,0.4-0.4,0.6-0.6,0.8c-2.1,1.8-3.5,4.1-3.9,6.9c0,0.3-0.1,0.6-0.4,0.7
		c-0.4,0.1-0.7,0-1.1-0.2c-4.3-1.5-8.6-3.2-12.7-5.2c-0.4-0.2-0.8-0.3-0.9-0.7c0,0,0-0.1,0.1-0.1c1.5-0.8,1.5-1.3,0.1-2.3
		c-2.5-1.8-5-3.6-6.9-6c-0.8-1-1.5-2-2-3.1c-1-2.1-0.7-3.8,0.9-5.5c0.3-0.3,0.4-0.7,0.3-1.1C16.4,24.8,16.1,24.6,16.5,24.4z"/>
	<path class="st10" d="M56.2,59.2c1.7,1.4,3.4,2.8,5.1,4.2c0.3-0.1,0.5,0.2,0.7,0.3c2.1,1.7,4.2,3.2,6.5,4.7
		c0.5,0.3,0.8,0.7,0.9,1.2c1.8,2.9,3.5,5.9,4.7,9.1c1.2,3,2.1,6.1,1.9,9.4c-0.1,1.1-0.4,2-1,2.9c-1,1.2-2.6,1.5-4.3,0.8
		c-0.2-0.1-0.5-0.2-0.7-0.3c-0.1-0.4,0.3-0.5,0.6-0.7c0.7-0.6,0.7-1.4,0-2c-3.6-2.6-6.3-5.9-8.6-9.7c-0.7-1.1-1.7-1.1-2.4,0.1
		c-0.1,0.2-0.1,0.5-0.4,0.4c-0.6-1.2-1.4-2.3-1.9-3.5c-0.6-0.4-0.6-1.1-0.6-1.7c-0.2-4.3-0.9-8.5-1.6-12.7c-0.1-0.5-0.2-1.1-0.2-1.7
		C55,59.5,55.4,59,56.2,59.2z"/>
	<path class="st10" d="M43.8,40.8c-4.2-3.5-8.4-6.9-13-10c-0.8-1.4-1.6-2.9-2.5-4.3c0-0.4,0.3-0.2,0.5-0.2c1.2,0.1,1.8-0.6,1.4-1.8
		c-0.4-1.1-0.7-2.2-1-3.3c-0.5-1.7-0.8-3.4-0.7-5.1c0.1-1.9,0.6-3.7,2.5-4.7c0.4-0.2,0.6-0.6,0.6-1.1c0-0.3-0.2-0.7,0.3-0.7
		c3.7,2.6,6.2,6.2,8.5,10c0.8,1.3,1.6,2.8,2.4,4.1c0.6,1.4,0.4,2.9,0.5,4.3c0.3,3.1,0.8,6.1,1.3,9.1c0.2,1,0.3,2,0.5,2.9
		C44.9,40.7,44.4,40.8,43.8,40.8z"/>
	<path class="st10" d="M30.8,69.2c2.1-1.6,4.3-2.9,6.4-4.6c2.2-1.8,4.4-3.6,6.7-5.4c0.8-0.1,1.2,0.3,1.5,0.9c0,1.8-0.6,3.5-0.8,5.3
		c-0.4,3.1-0.9,6.1-1,9.2c0,0.6,0,1.3-0.6,1.8c-2.1,4-4.5,7.8-7.5,11.2c-1,1.1-2.2,2.1-3.4,2.9c-0.5,0-0.3-0.4-0.3-0.6
		c0-0.6-0.2-1-0.8-1.3c-1.8-0.9-2.3-2.6-2.4-4.4c-0.1-2.7,0.5-5.2,1.4-7.7c0.2-0.4,0.3-0.8,0.4-1.3c0.1-1-0.4-1.5-1.4-1.5
		c-0.2,0-0.5,0.2-0.6-0.2C29.2,72.1,30,70.6,30.8,69.2z"/>
	<path class="st10" d="M24.2,43c2.5,1.4,5.1,2.5,7.7,3.5c1.9,0.8,3.9,1.5,5.9,2.2c0.3,0.1,0.7,0.2,1.1,0.3c0.4,0.6,0.4,1.3,0,1.9
		c-2,0.5-4,1.3-5.9,2.1c-2.7,1.1-5.4,2.2-8,3.5c-0.3,0.1-0.5,0.3-0.8,0.5c-0.1,0.1-0.2,0.1-0.4,0c-2.2,0-4.4,0.1-6.7,0
		c-3.4-0.2-6.8-0.7-10.1-1.9c0-0.1,0-0.2,0.1-0.3c1.1-0.5,1.3-1.3,1.1-2.4c-0.1-0.9,0.3-1.8,0.9-2.5c1.6-1.9,3.9-2.8,6.2-3.5
		c0.7-0.2,1.5-0.4,2.2-0.6c1.4-0.3,2-1.5,0.8-2.4c-0.1-0.1-0.2-0.2-0.2-0.4c1.9,0,3.7,0,5.6,0C24,42.9,24.1,42.9,24.2,43z"/>
	<path class="st12" d="M54.9,59.9c0.4,2.1,0.7,4.2,1,6.3c0.3,1.8,0.5,3.6,0.7,5.5c0.2,1.5,0,3.1,0.5,4.5C56.9,76.4,57,76.7,57,77
		c0,2.7,0.1,5.4-0.2,8.1c-0.5,3.9-1.1,7.7-3.4,11.1c-0.1,0-0.2,0-0.2-0.1c-0.2-1.1-1.2-1.7-1.9-2.5c-1.5-1.8-2.1-3.9-2.6-6.1
		c-0.6-2.5-0.8-5-0.8-7.6c-0.1-5.6,0.1-11.1,1-16.6c0.1-0.9-0.2-1.6-0.5-2.3c0.3-0.3,0.7-0.3,1-0.3c1.6,0.1,3.1-0.1,4.6-0.7
		C54.2,59.9,54.6,59.7,54.9,59.9z"/>
	<path class="st11" d="M48.3,60.9c0.7,0.5,0.9,1.1,0.8,2c-0.9,5.9-1.2,11.9-0.9,17.8c0.1,3.4,0.6,6.8,1.9,10.1
		c0.4,1,0.9,1.9,1.7,2.7c0.7,0.8,1.6,1.4,1.7,2.5c-0.8,1-1.7,2-3.2,2.1c-1.8,0.1-2.9-1.1-3.8-2.3c-1.5-2-2.1-4.4-2.6-6.8
		c-0.5-2.3-0.7-4.7-0.8-7c-0.1-1.7-0.3-3.3,0-4.9c0-0.3,0.1-0.6-0.2-0.8c0.6-1.4,0.4-2.9,0.5-4.3c0.3-3.1,0.7-6.1,1.3-9.1
		c0.2-1,0.3-2,0.5-2.9C46.3,59.9,47.4,60.3,48.3,60.9z"/>
	<path class="st11" d="M24.2,43c-0.1,0-0.3,0-0.4,0c-2.2-1.3-4.5-2.5-6.6-3.9c-2.8-2-5.6-4.1-7.6-7c-0.9-1.2-1.6-2.5-1.8-4
		C7.6,26,9,24.6,10.6,24.2c2-0.6,4-0.4,5.9,0.2c0.5,1,0.2,1.6-0.7,2.4c-1.3,1.2-1.1,2.8-0.5,4.3c1,2.3,2.6,4.2,4.5,5.9
		c1.6,1.4,3.4,2.8,5.2,4c0.4,0.3,0.8,0.7,0.6,1.3C25.4,43,24.9,43.1,24.2,43z"/>
	<path class="st11" d="M23.9,57c0.1,0,0.3,0,0.4,0c0.6-0.1,1.2,0.1,1.4,0.8c0.2,0.7-0.3,1.1-0.8,1.4c-2.3,1.5-4.3,3.1-6.2,5
		c-1.2,1.2-2.3,2.6-3,4.2c-0.6,1.5-1,3,0,4.5c0.1,0.1,0.2,0.3,0.3,0.4c1,0.5,1.2,1.3,0.7,2.3c-2.2,0.7-4.3,0.8-6.5,0
		c-1.8-0.7-2.6-2.5-2-4.5c0.8-2.8,2.8-4.9,4.9-6.8c1.9-1.8,4.1-3.3,6.3-4.7C20.7,58.7,22.3,57.8,23.9,57z"/>
	<path class="st12" d="M18.2,43c0.6,0.4,1.2,0.9,1,1.7c-0.2,0.8-0.9,1.2-1.7,1.4c-2,0.4-4,1-5.8,2C10.3,49,8.9,50,8.6,51.8
		c0,0.2-0.1,0.4-0.1,0.6c0.2,1.7,0.2,1.8-1.4,2.6c-2-0.7-3.8-1.6-4.9-3.5c-0.8-1.3-0.5-2.7,0.5-3.9c1.1-1.3,2.6-2.1,4.2-2.7
		c2.6-1,5.3-1.5,8.1-1.8C16.1,43.1,17.2,43,18.2,43z"/>
	<path class="st12" d="M32,9.5c-0.3,0.3,0.1,0.6,0,1c-0.1,0.4-0.3,0.9-0.7,1c-2,0.8-2.3,2.5-2.5,4.3c-0.2,2.9,0.7,5.7,1.7,8.4
		c0.4,1.1,0.1,2-0.8,2.4c-0.5,0.2-0.9-0.3-1.3-0.1c-2.1-3.7-3.8-7.6-4.4-11.9c-0.2-1.5-0.1-2.9,0.3-4.2c0.7-2,2.5-2.9,4.6-2.3
		C30,8.3,31.1,8.8,32,9.5z"/>
	<path class="st12" d="M28.4,73.5c0.5,0.2,0.8-0.4,1.3-0.1c0.9,0.4,1.2,1.2,0.8,2.3c-0.6,1.6-1.2,3.3-1.5,5
		c-0.4,2.1-0.6,4.3,0.5,6.3c0.2,0.3,0.4,0.7,0.7,0.8c1.2,0.5,1.8,1.3,1.7,2.6c-1.1,0.9-2.4,1.5-3.8,1.7c-2.6,0.3-3.8-1.5-4.1-3.6
		c-0.5-3.3,0.5-6.4,1.7-9.4C26.4,77.1,27.3,75.3,28.4,73.5z"/>
	<path class="st11" d="M69.4,69.6c-0.4-0.6-0.9-1-1.4-1.3c-2.3-1.5-4.6-3.1-6.7-4.9c0-0.1,0-0.3,0-0.4c0-0.6,0.2-1.2,0.8-1.5
		c0.6-0.3,1.1-0.2,1.6,0.2c2.8,2.1,5.6,4.1,8.5,5.9c4.1,2.5,8.3,4.6,13.1,5.6c1.7,0.3,2,1.4,1,2.8c0.5,0,1,0,1.5,0
		c-1.1,0.5-2.3,0.1-3.4-0.1c-5.2-0.9-9.8-3.3-14.2-6C70,69.7,69.8,69.2,69.4,69.6z"/>
	<path class="st12" d="M59.1,79.7c0.3-0.6,0.5-1.4,1.3-1.5c0.8-0.1,1.3,0.2,1.7,0.9c1.7,2.8,3.7,5.4,6.1,7.6
		c0.7,0.7,1.5,1.3,2.2,1.8c1.2,1,1.2,1.9-0.2,2.7c-0.1,0.1-0.2,0.1-0.3,0.2c-2.4-1.1-4.2-2.8-5.9-4.8C62.2,84.6,60.5,82.2,59.1,79.7
		z"/>
	<path class="st10" d="M61.3,36.6c-1.7,1.4-3.4,2.8-5.1,4.2c-0.8,0.1-1.2-0.3-1.5-0.9c-0.1-0.7,0.2-1.4,0.3-2.1
		c0.7-4,1.3-7.9,1.6-12c0-0.7-0.1-1.5,0.6-2c0.5-1.3,1.3-2.4,1.9-3.5c0.4-0.1,0.4,0.3,0.5,0.5c0.6,1,1.5,1.1,2.2,0.1
		c0.8-1.1,1.6-2.3,2.5-3.4c1.7-2.3,3.7-4.4,6.1-6.1c1.2-0.9,1.1-1.5,0-2.4c-0.1-0.1-0.3-0.2-0.3-0.4c0.6-0.2,1.3-0.5,2-0.6
		c2.2-0.2,3.8,1.4,4.1,3.8c0.3,3.4-0.7,6.6-1.9,9.7c-1.2,3.2-2.9,6.1-4.7,9.1c-0.1,0.4-0.3,0.8-0.7,1.1c-2.4,1.6-4.7,3.2-6.9,5
		C61.7,36.6,61.5,36.7,61.3,36.6z"/>
	<path class="st12" d="M57.2,23.8c-0.5,1.4-0.4,2.9-0.5,4.3c-0.3,3.1-0.8,6.1-1.3,9.1c-0.1,0.9-0.5,1.8-0.5,2.8
		c-0.7,0.2-1.3-0.3-2-0.4c-1.2-0.3-2.5-0.6-3.8-0.4c-0.3,0-0.6,0.1-0.8-0.2c1.1-0.7,0.8-1.8,0.7-2.9c-0.3-2.3-0.5-4.5-0.7-6.8
		c-0.3-3.3-0.2-6.6-0.1-9.9c0.1-3.5,0.5-7,1.9-10.2c0.4-1,0.9-2,1.7-2.8c0.7-0.8,1.5-1.4,1.7-2.6c1.8,2.6,2.5,5.5,3,8.5
		C57,15.8,57,19.3,57,22.7C57,23.1,56.8,23.5,57.2,23.8z"/>
	<path class="st11" d="M61.3,36.6c2.1-1.8,4.4-3.4,6.7-4.9c0.6-0.4,1.1-0.7,1.4-1.3c0.3,0.4,0.5-0.1,0.7-0.2
		c3.6-2.2,7.4-4.2,11.5-5.4c1.5-0.4,3-0.9,4.6-0.8c0,0,0.1,0,0.1,0c0.8,0.4,0.9,1,0.7,1.8c-0.1,0.8-0.8,0.9-1.4,1
		c-0.7,0.1-1.4,0.3-2.1,0.4c-0.9,0.7-2.1,0.9-3.2,1.1c-0.5,0.2-1,0.4-1.5,0.6c-0.3,0.6-1,0.5-1.5,0.7c-0.7,0.2-1.3,0.5-1.9,0.9
		c-0.4,0.4-0.8,0.7-1.3,0.8c-0.2,0-0.3,0-0.4,0.2c-0.1,0.2-0.4,0.2-0.6,0.4c-0.4,0-0.7,0.3-0.9,0.6c-1,1-2.2,1.6-3.4,2.4
		c-1.8,1.1-3.4,2.5-5.1,3.7c-0.6,0.4-1.2,0.5-1.7,0.1c-0.5-0.4-1-0.9-0.7-1.7C61.3,36.9,61.3,36.8,61.3,36.6z"/>
	<path class="st12" d="M70,8.4c0.7,0.5,1.5,0.8,1.3,1.9c-0.1,0.3-0.1,0.6-0.4,0.8c-3.7,2.5-6.4,6-8.8,9.7c-0.4,0.6-0.8,1-1.6,1
		c-0.9-0.1-1.1-0.8-1.4-1.5c1.3-2.3,2.8-4.5,4.5-6.5c1.3-1.6,2.7-2.9,4.3-4.1C68.5,9.1,69.2,8.7,70,8.4z"/>
	<path class="st12" d="M91.2,25.3c-0.9-0.1-1.9-0.2-2.4-1.1C89.8,24.2,90.6,24.6,91.2,25.3z"/>
	<path class="st12" d="M79.2,41.1c0.2-0.8,1.1-1.3,2.2-1.3C80.7,40.3,80.1,40.9,79.2,41.1z"/>
	<path class="st12" d="M84.8,37.4c0.3-0.7,0.6-1.3,1.5-1.1C85.9,36.7,85.4,37.1,84.8,37.4z"/>
	<path class="st12" d="M75.8,43c0-1.1,0.8-0.7,1.3-0.7c-0.2,0.4-0.7,0.4-0.9,0.7C76.1,43,75.9,43,75.8,43z"/>
	<path class="st12" d="M86.5,36.1c-0.1-0.8,0.3-1.2,1.1-1.1C87.3,35.4,87,35.8,86.5,36.1z"/>
	<path class="st12" d="M88.4,34.2c-0.2-0.7-0.1-0.9,0.9-1C89.1,33.6,88.8,33.9,88.4,34.2z"/>
	<path class="st12" d="M83.1,38.7c-0.4-1.1,0.6-0.6,1-0.7C83.9,38.3,83.5,38.5,83.1,38.7z"/>
	<path class="st12" d="M91.8,29.1c-0.2,0-0.4-0.1-0.3-0.4c0.1-0.3,0.3-0.4,0.5-0.4C92,28.6,92.1,28.9,91.8,29.1z"/>
	<path class="st11" d="M87.8,24c-0.3,0-0.6,0-0.9,0c-0.3,0.2-0.5,0.1-0.7,0c0,0,0,0,0,0C86.7,23.7,87.3,23.7,87.8,24z"/>
	<path class="st12" d="M92,28.4c0-0.5,0-1,0-1.5C92.3,27.3,92.3,27.9,92,28.4z"/>
	<path class="st13" d="M48.3,39.1c1.6-0.3,3.2-0.2,4.7,0.4c0,0.2,0.1,0.4,0.1,0.5c0.3,1.3-0.1,2.1-1.3,2.6c-1.7,0.7-3.3,1.5-4.6,2.9
		c-2.4,2.6-3.4,5.6-2.9,9c0,0.2,0.1,0.5,0.1,0.7c0.2,1.7-1,2.7-2.6,2.1c-1.6-1.6-2.4-3.5-2.8-5.7c0-0.2,0-0.5-0.2-0.7
		c0-0.6,0-1.3,0-1.9c0.3-1.2,0.5-2.4,1-3.5c0.9-2,2.3-3.4,3.9-4.8c0.4-0.3,0.9-0.5,1.3-0.8C46.2,39.6,47.2,39.2,48.3,39.1z"/>
	<path class="st14" d="M41.9,57.3c0.7-0.1,1.3,0.1,1.9-0.4c0.8-0.7,0.5-1.5,0.3-2.3c-1-4.9,2.2-10.4,7-12c0.4-0.1,0.8-0.3,1.1-0.5
		c0.7-0.4,1-1.3,0.6-2.1c-0.1-0.3-0.4-0.5,0.1-0.6c0.6,0.2,1.2,0.4,1.9,0.6c0.4,0.3,0.8,0.6,1.3,0.7c1.8,1.4,3.2,3,4.1,5.2
		c1.8,4.6,0.3,9.8-3.6,12.8c-0.2,0.1-0.3,0.3-0.5,0.4c-0.5,0.2-0.9,0.4-1.3,0.7c-2.1,0.9-4.3,1.2-6.6,1c-1.1-0.3-2.1-0.7-3.2-1
		c-0.4-0.3-0.8-0.6-1.3-0.7C43.2,58.5,42.4,58.1,41.9,57.3z"/>
	<path class="st12" d="M61.3,37c0.1,1.6,1.2,2.2,2.5,1.2c2.6-1.9,5.1-3.7,7.8-5.4c0.2-0.1,0.4-0.3,0.7-0.3c0,0.4-0.1,0.6-0.5,0.8
		c-1.3,0.8-2.6,1.6-3.8,2.4c-1.1,0.7-2.2,1.5-3.3,2.4c-0.4,0.3-0.8,0.6-1.1,0.9c-0.5,0.4-1.1,0.5-1.6-0.1C61.5,38.5,60.6,38,61.3,37
		z"/>
	<path class="st12" d="M86.1,24c0.2,0,0.5,0,0.7,0c-0.1,0.6,0.7,0.8,0.4,1.6c-0.5,1.3-0.3,1.4-1.7,1.2c0.4-0.3,1.1-0.3,1.2-1
		C87.1,25.1,86.8,24.5,86.1,24z"/>
	<path class="st12" d="M80.3,28.4c1-0.5,2.1-0.8,3.2-1.1C83,28,81.5,28.6,80.3,28.4z"/>
	<path class="st12" d="M74.1,31.4c0.4-0.3,0.8-0.7,1.3-0.8C75.2,31.5,75,31.7,74.1,31.4z"/>
	<path class="st12" d="M77.3,29.7c0.4-0.4,1-0.5,1.5-0.7C78.6,29.9,78.4,30,77.3,29.7z"/>
	<path class="st12" d="M73.2,31.9c0.1-0.2,0.3-0.4,0.6-0.4C73.7,31.9,73.4,31.9,73.2,31.9z"/>
</g>
</svg>
