<?xml version="1.0" encoding="utf-8"?>
<!-- Generator: Adobe Illustrator 26.2.1, SVG Export Plug-In . SVG Version: 6.00 Build 0)  -->
<svg version="1.1" id="Layer_1" xmlns="http://www.w3.org/2000/svg" xmlns:xlink="http://www.w3.org/1999/xlink" x="0px" y="0px"
	 viewBox="0 0 100 100" style="enable-background:new 0 0 100 100;" xml:space="preserve">
<style type="text/css">
	.st0{display:none;fill:#FF7064;}
	.st1{display:none;fill:#FFDAD7;}
	.st2{display:none;fill:#FFB7B0;}
	.st3{fill:#C4C8F6;}
	.st4{fill:#E0E3FA;}
	.st5{fill:#CCD0F7;}
	.st6{fill:#ECEDFC;}
	.st7{fill:#EAECFB;}
	.st8{fill:#E3E5FA;}
	.st9{fill:#A7AEF0;}
	.st10{fill:#B658CD;}
	.st11{fill:#C980DB;}
</style>
<path class="st0" d="M37.2,50.1c0-10.1,4.9-19.1,12.5-24.6c-5.1-3.7-11.3-5.9-18-5.9c-16.9,0-30.6,13.7-30.6,30.6
	s13.7,30.6,30.6,30.6c6.7,0,13-2.2,18-5.9C42.1,69.1,37.2,60.2,37.2,50.1z"/>
<path class="st1" d="M67.7,19.5c-6.7,0-13,2.2-18,5.9C57.3,31,62.2,39.9,62.2,50s-4.9,19.1-12.5,24.6c5.1,3.7,11.3,5.9,18,5.9
	c16.9,0,30.6-13.7,30.6-30.6S84.6,19.5,67.7,19.5z"/>
<path class="st2" d="M62.3,50.1c0-10.1-4.9-19.1-12.5-24.6C42.1,31,37.2,39.9,37.2,50.1s4.9,19.1,12.5,24.6
	C57.3,69.1,62.3,60.2,62.3,50.1z"/>
<path class="st3" d="M98,53.7c-0.2,3.4-0.8,6.7-1.8,9.9c-0.5,1.8-1,3.7-2,5.3c-0.5,0.3-0.9-0.1-1.3-0.3c-5.5-2.9-11.1-5.5-16.6-8.4
	c-2.3-1.2-4.6-2.3-6.9-3.5c-0.4-0.2-0.8-0.3-1-0.8c0.1-1.3,0.6-2.6,0.7-3.9c0.4-4.4-0.4-8.4-2.7-12.2c-0.8-1.3-1.9-2.4-2.7-3.7
	c-0.1-0.5,0.2-0.7,0.5-1c3.3-3.3,6.5-6.7,9.9-9.8c3-2.8,5.8-5.8,8.8-8.7c0.3-0.3,0.6-0.8,1.3-0.6c1.9,1.6,3.4,3.5,4.8,5.5
	c4.7,6.5,7.6,13.7,8.7,21.6c0.2,1.1,0.2,2.2,0.2,3.3c0,0.4,0,0.8,0,1.2c0.1,0.7-0.1,1.4,0.1,2c0,0.9,0,1.8,0,2.6
	C97.9,52.6,98.2,53.2,98,53.7z"/>
<path class="st4" d="M84.3,15.9c-0.4,0-0.5,0.3-0.8,0.5C77.3,22.5,71.2,28.6,65,34.7c-0.4,0.3-0.8,0.6-1,1.1c-0.1,0.1-0.3,0.1-0.4,0
	c-1.6-1.5-3.3-2.8-5.3-3.7c-4.3-2-8.7-2.4-13.3-1.2c-0.4,0.1-0.7,0.3-1.1,0.2c-0.5-0.1-0.6-0.5-0.8-0.9c-3.9-7.8-7.8-15.6-11.7-23.4
	c-0.2-0.3-0.4-0.6-0.2-1c1.4-0.8,3-1.3,4.6-1.8c3.5-1.1,7-1.8,10.6-2c0.6-0.3,1.3,0.1,1.9-0.2c1.1,0,2.3,0,3.4,0
	c0.5,0.2,1.1,0,1.6,0.1c5.7,0,11,1.5,16.2,3.7c5.4,2.3,10.1,5.4,14.3,9.5C84,15.3,84.3,15.5,84.3,15.9z"/>
<path class="st5" d="M98.2,49.5c-0.4-0.7-0.1-1.4-0.2-2.1c0.1-0.1,0.1-0.1,0.2,0C98.2,48.2,98.2,48.8,98.2,49.5z"/>
<path class="st6" d="M48.2,1.8C47.6,2.2,47,1.9,46.3,2c0-0.1,0-0.1,0-0.2C47,1.8,47.6,1.8,48.2,1.8z"/>
<path class="st7" d="M53.3,1.8c0,0.1,0,0.1,0,0.2c-0.6-0.1-1.2,0.2-1.7-0.2C52.2,1.8,52.7,1.8,53.3,1.8z"/>
<path class="st4" d="M98,53.7c0.1-0.5-0.2-1,0.2-1.5c0,0.5,0,1,0,1.5C98.1,53.7,98.1,53.7,98,53.7z"/>
<path class="st8" d="M98.2,47.5c-0.1,0-0.1,0-0.2,0c0-0.4,0-0.9,0-1.3c0.1,0,0.1,0,0.2,0C98.2,46.6,98.2,47,98.2,47.5z"/>
<path class="st3" d="M68.7,94.1c-1.7,1-3.6,1.5-5.4,2c-5.2,1.6-10.5,2.1-15.9,1.9c-5.4-0.3-10.6-1.4-15.6-3.5
	c-4.9-2-9.4-4.7-13.3-8.2c-0.8-0.7-1.7-1.5-2.4-2.3c-0.1-0.3,0.1-0.5,0.3-0.7c0.1-0.1,0.2-0.2,0.3-0.3c6.2-6.1,12.1-12.5,18.3-18.5
	c0.3-0.3,0.6-0.8,1.2-0.7c1.3,0.8,2.4,1.9,3.7,2.7c4.6,2.7,9.4,3.4,14.6,2.2c0.5-0.1,1-0.3,1.6-0.3c0.4,0.2,0.6,0.6,0.7,0.9
	c3.4,6.7,6.8,13.5,10.1,20.2c0.6,1.2,1.1,2.4,1.7,3.6C68.7,93.4,69,93.7,68.7,94.1z"/>
<path class="st4" d="M36,63.8c-0.8,0.6-1.4,1.3-2.1,2c-2.6,2.6-5.2,5.1-7.7,7.7c-3.2,3.4-6.6,6.6-9.8,10c-0.1,0.1-0.2,0.3-0.4,0.4
	c-2.6-2.5-4.8-5.4-6.7-8.5c-2.9-4.6-4.9-9.5-6.1-14.8c-0.6-2.5-0.9-4.9-1.1-7.5C2,51.5,1.9,49.7,2,48c0.2-5.8,1.4-11.4,3.7-16.8
	c0-0.1,0.1-0.2,0.2-0.3c0.4-0.3,0.7,0,1,0.1c6,3,12.1,6,18.1,9.1c1.6,0.8,3.2,1.6,4.9,2.4c0.5,0.3,1.1,0.4,1.4,1
	c0,1.3-0.6,2.5-0.7,3.9c-0.6,5.8,1,10.8,4.9,15.1c0.2,0.3,0.5,0.5,0.7,0.8C36.1,63.5,36.1,63.7,36,63.8z"/>
<path class="st9" d="M68.7,94.1c-0.7-1.5-1.3-3-2.1-4.5c-3.5-7-7-14-10.5-21.1c0.1-0.4,0.5-0.5,0.9-0.6c4.5-1.8,7.9-4.9,10.2-9.2
	c0.4-0.7,0.6-1.4,0.9-2.1c0.1-0.3,0.1-0.7,0.5-0.6c1.2,0.8,2.5,1.3,3.8,2c5.9,3,11.8,5.9,17.6,8.9c1.4,0.7,2.7,1.5,4.1,2
	c-0.7,2.3-2,4.2-3.2,6.2c-5.2,8.6-12.6,14.6-21.7,18.7C69.2,94,68.9,94,68.7,94.1z"/>
<path class="st3" d="M31.1,43.5c-1.5-0.8-3.1-1.6-4.6-2.4c-5.1-2.6-10.2-5.1-15.3-7.7c-1.7-0.9-3.4-1.8-5.2-2.5
	c0.8-2.4,2.1-4.6,3.4-6.7c2.2-3.6,4.9-6.8,8-9.7c4.1-3.7,8.5-6.8,13.7-8.8c0.1,0.2,0.1,0.5,0.3,0.7c4,8,8,15.9,11.9,23.9
	c0.1,0.2,0.3,0.4,0.4,0.6c0,0.4-0.3,0.4-0.6,0.5c-2.4,0.9-4.6,2.3-6.5,4c-2.2,2-3.8,4.4-4.9,7.2C31.6,43,31.6,43.5,31.1,43.5z"/>
<path class="st10" d="M68.7,55.9c-0.8,2-1.7,3.9-3,5.6c-2.4,3.1-5.3,5.3-8.9,6.7c-0.2,0.1-0.5,0.2-0.7,0.3c-2.1,0.6-4.3,1-6.5,0.9
	c-5-0.1-9.3-1.9-13-5.2c-0.2-0.2-0.4-0.3-0.6-0.5c0-0.1,0-0.2-0.1-0.4c0.1-0.3,0.3-0.5,0.6-0.7c2.1-2.1,4.3-4.3,6.4-6.4
	c0.3-0.3,0.6-0.7,1.1-0.7c0.3,0.1,0.4,0.2,0.6,0.4c3.4,2.8,8,2.5,11.1-0.6c3-3,3.2-7.7,0.5-11c-0.2-0.2-0.3-0.4-0.4-0.6
	c-0.1-0.4,0.2-0.6,0.4-0.9c2.3-2.3,4.5-4.6,6.8-6.8c0.2-0.2,0.3-0.3,0.5-0.4c0.1,0,0.2,0,0.4,0.1c1.9,2.2,3.6,4.5,4.5,7.2
	c1.4,4.1,1.6,8.2,0.3,12.3C68.7,55.5,68.7,55.7,68.7,55.9z"/>
<path class="st11" d="M63.6,35.8c-0.9,1.2-2,2.1-3,3.1c-1.6,1.6-3.1,3.2-4.7,4.8c-0.1,0.1-0.2,0.1-0.3,0c-1.4-1-2.8-1.8-4.5-2.1
	c-3.2-0.5-6.4,1-8.3,4c-1.6,2.5-1.4,6.2,0.3,8.6c0.3,0.4,0.6,0.8,0.9,1.2c0,0.1,0,0.2,0,0.3c-2.4,2.3-4.7,4.7-7.1,7
	c-0.3,0.3-0.5,0.6-0.8,0.7c-2.9-2.7-4.6-6-5.4-9.9c-0.8-3.4-0.4-6.8,0.6-10.1c0.8-2,1.7-3.9,3-5.6c2.4-3.2,5.5-5.5,9.3-6.8
	c0.1,0,0.2-0.1,0.3-0.2c2.3-0.6,4.7-1.1,7.1-0.9C55.8,30.4,60.2,32.1,63.6,35.8z"/>
<path class="st3" d="M43.9,55.7c0-0.1,0-0.1,0-0.2c0.1-0.4,0.4-0.6,0.6-0.8c3.5-3.5,7-7,10.4-10.4c0.2-0.2,0.4-0.5,0.8-0.6
	c0.1,0,0.1,0,0.2,0c1.8,1.9,2.6,4.1,2.5,6.7c-0.2,3.9-4,7.6-7.8,7.7C48,58.3,45.8,57.5,43.9,55.7z"/>
<path class="st4" d="M55.7,43.7c-0.7,0.7-1.4,1.5-2.1,2.2c-3,3-6,6-8.9,8.9c-0.2,0.2-0.5,0.5-0.8,0.7c-3-2.8-3.3-8-0.5-11.2
	c3.1-3.7,8.4-4.1,12.1-1C55.5,43.4,55.6,43.6,55.7,43.7z"/>
</svg>
