<?xml version="1.0" encoding="utf-8"?>
<!-- Generator: Adobe Illustrator 26.2.1, SVG Export Plug-In . SVG Version: 6.00 Build 0)  -->
<svg version="1.1" xmlns="http://www.w3.org/2000/svg" xmlns:xlink="http://www.w3.org/1999/xlink" x="0px" y="0px"
	 viewBox="0 0 300 300" style="enable-background:new 0 0 300 300;" xml:space="preserve">
<style type="text/css">
	.st0{fill:#4268BC;}
	.st1{display:none;}
	.st2{display:inline;}
	.st3{fill:#D34C4C;}
	.st4{fill:#4F8456;}
</style>
<g id="상어">
	<g>
		<path class="st0" d="M0,34.6c0-3.5,0-7,0-10.5c2.3-5.1,6.4-6.5,11.8-6.5c54.2,0.1,108.4,0.1,162.6,0.1c7.4,0,14.8,0.5,22.2,1.7
			c65.9,10.4,112.4,73.2,102,139.3c-7.1,45.2-32.6,77.3-74.1,96.3c-16.3,7.5-33.7,10.3-51.6,10c-1.9,0-3,0.4-3.8,2.3
			c-1.3,2.9-3.1,5.6-5.1,8.2c-12.3,15.9-28.5,24.2-48.6,24.7c-5.8,0.1-10-4.6-9.2-10c0.3-2,1.4-3.6,2.4-5.3
			c8-12.6,12.5-26.4,13.3-41.3c1.1-19.1-3.6-36.7-14-52.8c-2-3.1-2.5-6.3-0.7-9.7c1.9-3.4,5-4.7,8.9-4.5
			c22.5,1.1,39.8,11.1,51.3,30.3c2.4,4,4.8,5,9.1,4.9c15.5-0.4,29-10.3,33.5-25.1c4.4-14.7-1.3-31.2-13.9-39.8
			c-0.6-0.4-1.1-1.2-2.1-0.7c0,7,0,14,0,21c0,5.6-3.8,9.2-9.5,9.3c-3.1,0-6.2-0.3-9.3-0.9c-20.1-3.8-34.8-15-44.5-32.9
			c-0.8-1.5-1.7-2-3.4-2c-7.4,0-14.8,0.3-22.2-0.4c-27.7-2.6-51.4-13.6-71.3-33c-0.4-0.4-1.3-0.7-0.8-1.7c1,0,2.1,0,3.2,0
			c14.3,0,28.5,0,42.8,0c3.6,0,6.5-1.3,8.4-4.4c3.6-6.1-0.8-13.2-8.2-13.2c-19.4,0-38.9,0-58.3,0c-1.9,0-3-0.4-4-2.1
			C9.9,74.3,4.9,62.1,2.3,49C1.4,44.2,0.7,39.4,0,34.6z M130.8,79c0-8.8-3.1-16.4-9-22.9c-3.8-4.2-9.2-4.6-13-1.1
			c-3.7,3.4-3.7,8.6-0.1,12.8c6.1,7,6.1,15.3,0.1,22.2c-3.8,4.4-3.7,9.6,0.1,13c3.9,3.4,9.2,2.9,13-1.3
			C127.8,95.4,130.8,87.8,130.8,79z M166,79c0-8.5-3.1-16.5-8.8-22.6c-3.9-4.2-9.1-4.8-13-1.4c-3.9,3.4-4,8.7-0.2,13
			c6,7,6.1,15.3,0,22.2c-3.7,4.3-3.7,9.6,0.2,13c3.9,3.4,9.2,2.9,13-1.3C163,95.4,166,87.8,166,79z M79.8,70.3
			c4.7-0.1,8.7-4.1,8.7-8.8c0-4.7-4-8.7-8.7-8.7c-4.9,0-8.9,4.1-8.8,9C71,66.5,75.1,70.4,79.8,70.3z"/>
		<path class="st0" d="M293.6,0c1.2,1.1,2.9,1.5,4,2.8c3.4,3.7,3.2,8.7-0.7,12.8c-6.6,7-10.9,15.1-13,24.5c-0.5,2.4-0.8,4.9-1.4,7.9
			C267.3,31,249.2,18.6,228,9.9c5.9-3.6,11.7-5.9,17.9-7.5c3.7-1,7.6-1.6,11.4-2.4C269.3,0,281.5,0,293.6,0z"/>
	</g>
</g>
<g id="화산" class="st1">
	<g class="st2">
		<path class="st3" d="M0,278.6c2.3-5.1,6.4-7,11.8-6.4c1.2,0.1,2.4-0.1,3.5,0c7.5,1.2,13.3-1.8,19-6.5
			c29.1-24.2,51.3-53.5,65.9-88.4c0.1-0.2,0.2-0.4,0.2-0.5c1.3-3.2,1.3-3.2,3.9-1c5.1,4.4,10.2,8.8,15.3,13.2
			c4.8,4.1,8.6,4.2,13.6,0.3c4.9-3.9,9.8-7.7,14.6-11.7c1.7-1.4,2.8-1.3,4.4,0.1c4.9,4.1,9.9,8,14.8,11.9c4.5,3.6,8.5,3.5,12.9-0.2
			c5.4-4.7,10.8-9.3,16.1-14.1c1.7-1.5,2.3-1.2,3.1,0.8c12.6,30.9,31.3,57.5,55.7,80.3c5.6,5.2,11.4,10,17.5,14.6
			c1.4,1,2.8,1.5,4.6,1.5c3.7-0.1,7.4,0.2,11.1-0.1c5.4-0.4,9.5,1.4,11.8,6.5c0,1.6,0,3.1,0,4.7c-2.3,5.1-6.4,6.5-11.8,6.5
			c-92.1-0.1-184.2-0.1-276.3,0c-5.4,0-9.5-1.5-11.8-6.5C0,281.7,0,280.1,0,278.6z"/>
		<path class="st3" d="M168.7,100.5c0,3-0.1,6,0,9.1c0,1.3-0.5,1.9-1.7,2.2c-11.4,3.2-22.7,3.2-34.1,0c-1.4-0.4-1.8-1-1.8-2.4
			c0.1-5.6,0-11.3,0.1-16.9c0-1.8-0.5-2.8-2.1-3.6c-2.4-1.1-4.6-2.7-6.4-4.5c-1.4-1.4-2.7-1.6-4.6-1c-18.3,6-37.8-4.7-42.1-23.5
			c-2.8-12,0.3-22.7,9.4-31.2c9.1-8.5,20-11.1,32-7.6c2.6,0.8,4.1,0.3,6.1-1.3c15.8-13,38.6-12.7,54,0.7c1.5,1.3,2.6,1.5,4.4,0.9
			c12.7-4.2,26.5-0.5,35.1,9.5c8.7,10.1,10.6,24.1,4.7,36C215.6,78.7,203,85.9,189.6,85c-2.7-0.2-5.4-0.7-8-1.7
			c-1.7-0.7-2.8-0.5-4.1,0.8c-1.5,1.5-3.2,2.9-5.1,3.8c-3.1,1.4-4.2,3.5-3.7,6.8C168.9,96.6,168.7,98.6,168.7,100.5z"/>
		<path class="st3" d="M191.5,154.2c0.3,1.5-0.4,2-1,2.5c-5.3,4.7-10.7,9.3-16,14.1c-1.2,1.1-1.9,0.7-3-0.1
			c-4.9-4-9.9-7.9-14.8-11.9c-5-4-8.5-3.9-13.6,0.1c-4.9,3.9-9.8,7.7-14.6,11.7c-1.3,1.1-2.1,1.1-3.4-0.1c-5.1-4.5-10.2-9-15.5-13.4
			c-1.2-1-1.5-2-1.1-3.5c1.9-6.2,3.3-12.6,4.6-19c1.2-5.7,5.9-8.5,11.7-6.9c8.3,2.4,16.6,4.1,25.3,4.1c8.1,0,16.1-1.6,23.9-3.8
			c7.2-2.1,11.4,0.5,13,7.8c1.3,5.8,2.8,11.5,4.2,17.3C191.3,153.6,191.5,154.2,191.5,154.2z"/>
	</g>
</g>
<g id="히말라야" class="st1">
	<g class="st2">
		<path class="st4" d="M165.6,0.5c3.1,1.1,6.3,1.9,9.1,3.7c5.3,3.3,8.3,8.3,10.7,13.8c1,2.2,2.2,3.1,4.7,3.1
			c7.5,0,13.3,4.3,15.6,11.7c0.9,3.1,2.4,4.2,5.5,3.8c2.5-0.3,5.1-0.1,7.6,0c4.2,0.2,7.4,3.4,7.5,7.5c0.1,4.1-3.1,7.7-7.4,7.8
			c-7.9,0.1-15.7,0-23.6,0.1c-1.6,0-2.1-0.7-2.6-2.1c-1.7-5.7-3.5-11.3-5.3-16.9c-2.4-7.3-8-11.7-15.2-11.9
			c-6.8-0.2-12.7,3.9-15.4,10.8c-2.4,6-4.7,11.9-6.9,17.9c-0.6,1.6-1.4,2.2-3.2,2.2c-13.6-0.1-27.2,0-40.8-0.1c-5,0-8.4-3.3-8.4-7.8
			c0.1-4.4,3.5-7.5,8.3-7.6c2.8,0,5.6-0.1,8.5,0c1.9,0.1,2.6-0.6,3.2-2.4c3.2-9.4,7.6-12.7,17.5-13.1c1.4-0.1,2.1-0.5,2.6-1.7
			c0.7-1.7,1.6-3.3,2.4-5c3.6-7.1,9.1-11.7,17-13.4c0.4-0.1,0.7-0.3,1-0.5C160.5,0.5,163,0.5,165.6,0.5z"/>
		<path class="st4" d="M210.5,160.2c-3.4-0.1-6.2-2.4-7-5.9c-0.7-2.8-1.1-5.7-1.8-8.6c-1.5-6.9-7.4-11.5-14.3-11.2
			c-7.1,0.3-12.6,5.5-13.2,12.7c-1.2,15.4-2.3,30.8-3.4,46.2c-0.2,2.7-0.4,5.4-0.6,8.1c-0.1,2.4-0.3,4.8-3.4,4.8
			c-3.1,0.1-3.3-2.5-3.5-4.7c-1.1-10.6-2.1-21.3-3.1-31.9c-0.5-5.1-2.3-9.4-6.7-12.3c-7.9-5.2-18.5-1.7-21.8,7.3
			c-2,5.6-3.9,11.2-5.7,16.8c-0.8,2.6-2.3,4.4-5.1,4.3c-2.8-0.1-4.2-2-4.8-4.6c-1.8-8.1-6.2-14.6-12.7-19.6
			c-0.6-0.5-1.9-0.8-0.6-1.9c10.5-9.2,13.7-22,16.6-34.9c0.5-2.3,1.1-4.5,1.7-6.8c0.6-2.6,2.3-4.1,4.9-4.2c2.6-0.1,4.4,1.4,5.2,3.9
			c2.4,7,4.7,14,7,21c0.6,1.8,1.1,2.7,3.1,1.7c2.3-1.1,6-0.9,6.9-2.9c0.7-1.8-1.1-4.7-1.9-7.1c-1.9-5.7-3.2-11.8-6-17
			c-2.3-4.3-1.4-7.4,0.1-11.3c8.5-21.7,16.9-43.4,25.3-65.1c0.2-0.5,0.4-0.9,0.5-1.4c1-2.7,2.9-4.4,5.9-4.3c2.9,0.1,4.5,1.9,5.4,4.6
			c2.5,8.2,5.1,16.3,7.7,24.4c9.8,31.5,19.7,63,29.5,94.5C215.8,158.6,214.4,160.2,210.5,160.2z"/>
		<path class="st4" d="M153.1,269.5c-0.3-0.4-0.5-0.9-0.9-1.3c-3.9-4.3-8.6-7.6-14-9.8c-7.8-3.2-13.1-8.8-16.3-16.5
			c-1.8-4.5-3.8-8.9-5.7-13.4c-2.8-6.5-7.1-11.8-13-15.8c-5-3.4-8.6-7.8-11.2-13.2c-2.1-4.5-4.4-8.9-6.6-13.3
			c-0.4-0.8-1-1.6-0.5-2.7c2.1-4.9,4.1-9.9,7.4-14.1c1.1-1.4,2-1.7,3.5-0.6c5.4,3.6,8.8,8.6,10.3,15c2.4,9.6,11.3,14.6,20.1,11.5
			c4.8-1.7,7.9-5.2,9.5-10c1.8-5.3,3.6-10.7,5.3-16c0.8-2.5,2.2-4.2,5-3.8c2.7,0.3,3.6,2.2,3.8,4.7c1.1,11.3,2.3,22.6,3.4,33.9
			c0.7,7.3,6.4,12.7,13.5,12.7c7,0,12.9-5.2,13.4-12.4c1.3-15.4,2.3-30.8,3.4-46.2c0.2-3.1,0.4-6.2,0.6-9.3c0.2-2.3,1.2-4,3.6-4.1
			c2.3-0.1,3.4,1.5,3.9,3.6c0.5,2.8,1.1,5.5,1.7,8.3c2.5,10.6,13,16.3,23.2,12.6c2-0.7,2.6-0.2,2.9,1.6c0.1,0.3,0.1,0.6,0.2,0.8
			c1.6,3.5,2,6.4-2.1,8.8c-2.7,1.6-3.8,4.8-4.8,7.8c-5.5,15.5-11,30.9-16.5,46.4c-3.1,8.9-9,14.6-18.3,16.5
			c-9.9,2.1-16.9,8.3-22.6,16.3C154.9,268.1,154.5,269,153.1,269.5z"/>
		<path class="st4" d="M114.9,268.3c-4.8-0.2-8.4-3.5-9.3-8.5c-0.6-3.5-1.2-7.1-1.8-10.6c-1.2-6.8-6.8-11.7-13.6-11.8
			c-6.8-0.1-12.8,4.4-14,11.3c-1.4,8.3-2.3,16.7-3.3,25.1c-0.3,2.6-1.3,4.6-4.1,4.8c-2.7,0.1-3.9-1.7-4.4-4.1
			c-0.3-1.4-0.7-2.8-1-4.2c-1.9-6.8-7.2-11.3-14.2-12.1c-6.4-0.7-12.6,2.6-15.9,8.7c-1,1.9-1.9,3.8-2.9,5.7
			c-3.4,6-10.3,7.9-16.3,4.4c-5.3-3-5.2-3-3.3-8.7c2.5-7.3,7.1-12.7,14.2-15.7c10.5-4.4,17.4-11.9,21.6-22.4
			c5.1-12.9,10.6-25.6,15.9-38.5c1.3-3.1,3-5.5,6.6-5.6c3.8-0.2,5.8,2.1,7.3,5.2c2.3,4.7,4.7,9.4,7,14.1c3,6.1,7.2,11.3,12.9,15.1
			c5.3,3.6,9.1,8.4,11.4,14.3c1.5,3.9,3.3,7.7,4.9,11.5c2.4,5.6,5.6,10.7,10.3,14.6c1.4,1.2,1.4,2,0.3,3.3
			C121.1,266.8,118.1,268.4,114.9,268.3z"/>
		<path class="st4" d="M232.4,299.2c-20.6,0-41.2,0-61.8,0c-2,0-3.1-0.5-3.9-2.5c-2-5.2-4.4-10.4-6.6-15.6c-0.4-0.8-1.2-1.7-0.4-2.7
			c3.9-4.6,7.1-9.8,11.9-13.5c2-1.6,2.8-1.2,3.9,1c5.3,10.8,16,15.2,26.4,11.1c6-2.3,9.9-6.7,12-12.7c1.5-4.2,2.8-8.5,4.2-12.7
			c0.8-2.6,2.3-4.3,5.3-3.9c2.8,0.4,3.6,2.5,3.9,5c0.9,7.7,1.9,15.4,2.9,23.1c0.9,6.6,6.2,12,12.6,12.7c7.1,0.8,13.4-2.8,15.8-9.3
			c1.6-4.3,2.9-8.6,4.4-13c2.1-6.1,5.3-8.1,11.7-8.6c4.6-0.3,7.6,1.3,10.5,4.7c7.4,8.8,10.7,19,11.6,30.2c0.2,2,1.5,4.6,0.4,5.9
			c-1.3,1.4-4,0.5-6.2,0.5C271.4,299.2,251.9,299.2,232.4,299.2z"/>
		<path class="st4" d="M6,283.9c4.6,3.2,9.3,5.2,14.8,4.9c8.3-0.4,14.4-4.2,18.5-11.3c1.1-1.9,2-4,3.1-6c1.2-2.3,3.1-3.5,5.7-3.2
			c2.7,0.2,4.5,1.8,5.2,4.4c0.6,2,0.9,4,1.5,5.9c2,6.5,8,10.6,14.9,10.1c6.5-0.4,12-5.2,13-11.8c1.1-7.4,1.9-14.8,2.9-22.2
			c0.1-1.2,0.3-2.3,0.5-3.5c0.3-2.1,1.4-3.4,3.6-3.5c2.4-0.1,3.6,1.3,4,3.5c0.7,3.5,1.2,7.1,1.8,10.6c1.5,8.3,7.4,14.6,15.2,16.2
			c8.5,1.7,15.6-0.9,20.7-8c1.7-2.3,2.9-2.3,5.1-1.1c6,3.3,10.5,8,13.2,14.3c1.9,4.4,3.7,9,5.8,13.4c1.1,2.4,0.4,2.6-1.9,2.6
			c-23.9-0.1-47.8,0-71.7,0c-25.9,0-51.7,0-77.6,0c-2.3,0-3.1-0.3-2.2-2.8C3.6,292.4,4.6,288.3,6,283.9z"/>
		<path class="st4" d="M85.8,113.8c-5.6,0-11.3,0-16.9,0c-4.1,0-6.7-2.1-7.3-5.7c-0.6-3.5,1.3-6.4,5.1-7.8c2.1-0.8,5.9-0.9,6.1-2.6
			c0.3-2.6-1.4-5.5-2.2-8.3c-0.3-1-1-0.9-1.9-0.7c-7.5,2.2-14.4,5-16.8,13.5c-0.3,1.1-1.1,1.2-2,1.2c-10,0-20,0.1-30-0.1
			c-5.7-0.1-9.9-4.8-9.9-10.2c0-5.6,4.4-10.1,10.2-10.3c3.7-0.1,7.4-0.2,11.1,0c2,0.1,3-0.6,3.7-2.4c1.1-2.5,2.3-4.9,3.6-7.3
			c4-7.5,11.9-11.7,20.4-10.8c8.1,0.8,15,6.5,17.5,14.6c1.8,5.9,1.8,5.9,8,5.9c6.5-0.1,11.4,2.5,14,8.5c1.1,2.4,2.9,1.8,4.6,1.9
			c5.2,0.3,9.3,4.1,9.9,9.4c0.5,4.7-2.8,9.5-7.6,10.8c-1.1,0.3-2.3,0.3-3.5,0.3C96.5,113.8,91.1,113.8,85.8,113.8z"/>
		<path class="st4" d="M268.4,248.4c-8.8,2.6-13.4,8.5-15.6,16.7c-0.9,3.1-2,6.1-3,9.1c-1.1,3.4-2.8,4.8-5.2,4.4
			c-3.1-0.5-3.8-2.8-4.2-5.5c-0.9-7.6-1.8-15.2-2.9-22.8c-1-7-6.4-12-13.2-12.7c-6.7-0.7-13,3.4-15.4,10.1c-1.6,4.5-3,9-4.6,13.5
			c-1.5,4.4-4.6,6.9-9.3,7.2c-4.7,0.3-7.9-2.2-10-6.2c-0.6-1.2-0.9-1.9,0.8-2.5c10.5-4.1,17-11.7,20.6-22.3
			c5.3-15.2,10.8-30.3,16.2-45.5c1.1-3.1,2.7-5.4,6.2-5.7c3.5-0.2,5.5,1.8,6.9,4.8c6.6,13.2,13.2,26.4,19.8,39.6
			c1.7,3.3,3.4,6.5,5.6,9.6C263.1,242.8,265.6,245.5,268.4,248.4z"/>
		<path class="st4" d="M251.9,113.8c-11.7,0-23.3-0.1-35,0.1c-3.2,0-5-0.8-5.8-4.1c-0.7-3.4-1.9-6.7-3.1-10c-0.7-1.8-0.1-2.9,1.2-4
			c1.9-1.6,4.1-2.5,6.7-2.5c3.8,0,7.6-0.1,11.4,0c1.5,0,2.3-0.5,2.9-1.8c1.3-2.7,2.6-5.4,4.1-8c4-7,10-10.7,18.1-10.6
			c8,0.2,13.8,4,17.5,11c1.2,2.3,2.4,4.7,3.3,7.1c0.7,1.7,1.6,2.3,3.5,2.3c3.7-0.1,7.4-0.1,11.1,0c6,0.1,10.4,4.5,10.4,10.3
			c0,5.8-4.4,10.2-10.5,10.2C275.8,113.8,263.9,113.8,251.9,113.8z"/>
	</g>
</g>
</svg>
