<svg id="레이어_1" data-name="레이어 1" xmlns="http://www.w3.org/2000/svg" viewBox="0 0 95 820"><defs><style>.cls-1{font-size:36px;font-family:NotoSansKR-Regular-KSCpc-EUC-H, Noto Sans KR;}.cls-2{fill:none;stroke:#000;stroke-miterlimit:10;stroke-width:2px;}</style></defs><text class="cls-1" transform="translate(26.47 53.68)">04</text><line class="cls-2" x1="48.97" y1="76" x2="48.97" y2="453"/><path d="M61.3,488.9v4L47.15,498c-1.83.61-3.67,1.22-5.5,1.87v.18c1.83.61,3.67,1.18,5.5,1.8l14.15,5v4H34.88V507.8H49.49c2.27,0,5.48.25,7.78.43v-.15l-6-2.08-13.72-5v-2.23l13.72-5,6-2.09v-.15c-2.3.15-5.51.4-7.78.4H34.88v-3Z"/><path d="M40,516.62c4.25,0,6.38,3.71,7.31,12,2.52,0,4.93-.83,4.93-4a10.8,10.8,0,0,0-2.08-5.87l2.26-1.29a14.71,14.71,0,0,1,2.56,7.7c0,4.75-3.2,6.77-8,6.77h-12v-2.7l2.34-.29v-.11a10.46,10.46,0,0,1-2.81-6.48C34.41,519.07,36.43,516.62,40,516.62Zm-.32,12H45.1c-.79-6.59-2.41-8.82-4.93-8.82-2.23,0-3.13,1.51-3.13,3.46S37.94,526.73,39.63,528.64Z"/><path d="M60.65,537.6a2.2,2.2,0,1,1-2.19,2.2A2.07,2.07,0,0,1,60.65,537.6Zm-6.22.55v3.27H34.88v-3.27Z"/><path d="M54.43,548.05v2.7l-2.81.28v.11c1.83,1.87,3.31,3.89,3.31,6.55,0,4.11-2.66,6-7.67,6H34.88v-3.28H46.83c3.67,0,5.22-1.11,5.22-3.7,0-2-1-3.39-3-5.37H34.88v-3.27Z"/><path d="M58.46,583.9v-8H61.3v19.33H58.46v-8H34.88V583.9Z"/><path d="M63.53,599.67v3.27H55.68l-4-.1c1.8,1.8,3.28,3.81,3.28,6.48,0,4.1-2.66,6-7.67,6H34.88V612H46.83c3.67,0,5.22-1.12,5.22-3.71,0-2-1-3.39-3-5.37H34.88v-3.27Z"/><path d="M44.63,620.05c6.34,0,10.3,4.28,10.3,8.81,0,5-3.6,7.78-9.18,7.78a13.14,13.14,0,0,1-1.87-.14V623.32c-4.18.22-6.84,2.77-6.84,6.48a8.33,8.33,0,0,0,1.55,4.89l-2.16,1.19a11.57,11.57,0,0,1-2-6.48C34.41,624.22,38.19,620.05,44.63,620.05Zm1.62,13.71c3.93,0,6-1.8,6-4.86,0-2.77-2.23-5.22-6-5.62Z"/><path d="M54.43,641.46v2.7l-2.85.29v.11c1.87,1.69,3.35,3.74,3.35,6.08a5.15,5.15,0,0,1-3.75,5.4c2.2,2,3.75,4.07,3.75,6.45,0,4-2.66,5.94-7.67,5.94H34.88v-3.28H46.83c3.67,0,5.22-1.15,5.22-3.64,0-1.51-1-3.09-3-4.93H34.88v-3.27H46.83c3.67,0,5.22-1.16,5.22-3.64,0-1.47-1-3.13-3-4.93H34.88v-3.28Z"/><path d="M44.63,673.32c6.34,0,10.3,4.29,10.3,8.82,0,5-3.6,7.78-9.18,7.78a11.67,11.67,0,0,1-1.87-.15V676.6c-4.18.22-6.84,2.77-6.84,6.48a8.4,8.4,0,0,0,1.55,4.9l-2.16,1.18a11.57,11.57,0,0,1-2-6.48C34.41,677.5,38.19,673.32,44.63,673.32ZM46.25,687c3.93,0,6-1.8,6-4.86,0-2.77-2.23-5.22-6-5.62Z"/></svg>