<svg id="레이어_1" data-name="레이어 1" xmlns="http://www.w3.org/2000/svg" viewBox="0 0 95 820"><defs><style>.cls-1{font-size:36px;font-family:NotoSansKR-Regular-KSCpc-EUC-H, Noto Sans KR;}.cls-2{fill:none;stroke:#000;stroke-miterlimit:10;stroke-width:2px;}</style></defs><text class="cls-1" transform="translate(26.29 53.68)">03</text><line class="cls-2" x1="48.79" y1="76" x2="48.79" y2="453"/><path d="M42.41,494.09l2.27,2a10.2,10.2,0,0,0-3.27,7.27c0,3.45,1.72,5.54,4.32,5.54s3.56-1.91,4.67-4.39l1.66-3.81c1-2.45,2.92-5.37,6.77-5.37,4.07,0,7,3.53,7,8.32a10.79,10.79,0,0,1-3.28,7.77l-2.12-1.76a8.56,8.56,0,0,0,2.48-6c0-3-1.51-4.93-3.89-4.93-2.55,0-3.52,2.3-4.39,4.35L53,506.87c-1.33,3.06-3.13,5.44-7.05,5.44-4.18,0-7.49-3.46-7.49-9A12.63,12.63,0,0,1,42.41,494.09Z"/><path d="M58.5,517.2v2.7l-2.23.29v.11c1.44,1.76,2.74,4,2.74,6.23,0,5-4,7.77-10,7.77-6.7,0-10.55-4-10.55-8.49a8.8,8.8,0,0,1,2.27-5.4l-3.42.07H30.72V517.2ZM49,530.88c4.32,0,7.24-1.44,7.24-5.15,0-1.65-.94-3.34-2.7-5.25H43.28a7.57,7.57,0,0,0-2.05,4.79C41.23,528.51,44.14,530.88,49,530.88Z"/><path d="M64.73,539a2.2,2.2,0,1,1-2.19,2.2A2.07,2.07,0,0,1,64.73,539Zm-6.23.54v3.28H39v-3.28Z"/><path d="M48.71,548c6.34,0,10.3,4.28,10.3,8.82,0,5-3.6,7.77-9.18,7.77A13.14,13.14,0,0,1,48,564.4V551.22c-4.18.22-6.84,2.77-6.84,6.48a8.38,8.38,0,0,0,1.55,4.9l-2.16,1.19a11.62,11.62,0,0,1-2-6.48C38.49,552.12,42.27,548,48.71,548Zm1.62,13.71c3.93,0,6.05-1.8,6.05-4.86,0-2.77-2.23-5.22-6.05-5.61Z"/><path d="M35.22,567.5a5.49,5.49,0,0,1,4.42,2.87h.15a3.53,3.53,0,0,1,3.2-1.8,4.78,4.78,0,0,1,3.64,2.2h.14A6.85,6.85,0,0,1,52,568.21c4.29,0,7,3.39,7,7.35a7.81,7.81,0,0,1-.51,2.73v6.81H56v-4a5.55,5.55,0,0,1-4,1.59c-4.17,0-6.8-3.17-6.8-7.13a6.87,6.87,0,0,1,.68-2.92,2.91,2.91,0,0,0-2.34-1.26c-1.26,0-2.12.79-2.12,3.42v3.82c0,4.53-1.44,6.84-4.64,6.84-3.64,0-6.77-3.86-6.77-9.9C30,570.77,31.83,567.5,35.22,567.5Zm1,14.75c1.8,0,2.41-1.4,2.41-4v-3.39a10.85,10.85,0,0,1,.33-2.52,4.09,4.09,0,0,0-3.31-2c-2.09,0-3.46,2.13-3.46,5.66C32.19,579.77,34.17,582.25,36.22,582.25ZM52,579.73c2.85,0,4.58-1.87,4.58-4.17s-1.7-4.18-4.58-4.18-4.64,1.91-4.64,4.18S49.18,579.73,52,579.73Z"/><path d="M48.71,587.22c6.34,0,10.3,4.29,10.3,8.82,0,5-3.6,7.78-9.18,7.78a13,13,0,0,1-1.87-.15V590.5c-4.18.21-6.84,2.77-6.84,6.48a8.35,8.35,0,0,0,1.55,4.89l-2.16,1.19a11.59,11.59,0,0,1-2-6.48C38.49,591.4,42.27,587.22,48.71,587.22Zm1.62,13.72c3.93,0,6.05-1.8,6.05-4.86,0-2.77-2.23-5.22-6.05-5.62Z"/><path d="M42.85,608.64H67.61v3.28h-25c-1,0-1.4.43-1.4.93a3,3,0,0,0,.07.69l-2.52.46a5,5,0,0,1-.29-1.9C38.49,609.65,40.07,608.64,42.85,608.64Z"/><path d="M64.73,626.43a2.2,2.2,0,1,1-2.19,2.19A2.06,2.06,0,0,1,64.73,626.43ZM58.5,627v3.27H39V627Z"/><path d="M58.5,636.87v2.69l-2.84.29V640C57.53,641.65,59,643.7,59,646a5.15,5.15,0,0,1-3.75,5.4c2.2,2,3.75,4.07,3.75,6.45,0,4-2.67,5.94-7.67,5.94H39v-3.28H50.91c3.67,0,5.22-1.15,5.22-3.64,0-1.51-1-3.09-3-4.93H39v-3.27H50.91c3.67,0,5.22-1.15,5.22-3.64,0-1.47-1-3.13-3-4.93H39v-3.27Z"/><path d="M41.19,676.07l2.16,1.62a8.83,8.83,0,0,0-2.3,5.79c0,2.6,1.36,3.86,3.06,3.86,2,0,2.88-2.31,3.7-4.47,1-2.73,2.34-5.72,5.65-5.72,3.1,0,5.55,2.52,5.55,6.77a9.9,9.9,0,0,1-2.2,6l-2.12-1.58A7.14,7.14,0,0,0,56.42,684c0-2.48-1.3-3.63-2.81-3.63-1.87,0-2.56,2-3.38,4.21-1.08,2.84-2.24,6-5.94,6-3.17,0-5.8-2.52-5.8-7.12A11.76,11.76,0,0,1,41.19,676.07Z"/><path d="M58.5,695.11v2.7l-2.23.29v.11c1.44,1.76,2.74,4,2.74,6.23,0,5-4,7.77-10,7.77-6.7,0-10.55-4-10.55-8.5a8.8,8.8,0,0,1,2.27-5.39l-3.42.07H30.72v-3.28ZM49,708.79c4.32,0,7.24-1.44,7.24-5.15,0-1.65-.94-3.34-2.7-5.25H43.28a7.57,7.57,0,0,0-2.05,4.79C41.23,706.42,44.14,708.79,49,708.79Z"/><path d="M64.73,716.89a2.2,2.2,0,1,1-2.19,2.2A2.07,2.07,0,0,1,64.73,716.89Zm-6.23.54v3.28H39v-3.28Z"/><path d="M48.71,725.86c6.34,0,10.3,4.28,10.3,8.81,0,5-3.6,7.78-9.18,7.78a13.14,13.14,0,0,1-1.87-.14V729.13c-4.18.22-6.84,2.77-6.84,6.48a8.38,8.38,0,0,0,1.55,4.9l-2.16,1.18a11.57,11.57,0,0,1-2-6.48C38.49,730,42.27,725.86,48.71,725.86Zm1.62,13.71c3.93,0,6.05-1.8,6.05-4.86,0-2.77-2.23-5.22-6.05-5.61Z"/><path d="M35.22,745.4c1.65,0,3.23,1.05,4.42,2.88h.15a3.53,3.53,0,0,1,3.2-1.8,4.78,4.78,0,0,1,3.64,2.2h.14A6.85,6.85,0,0,1,52,746.12c4.29,0,7,3.39,7,7.35a7.81,7.81,0,0,1-.51,2.73V763H56v-4a5.55,5.55,0,0,1-4,1.58c-4.17,0-6.8-3.16-6.8-7.12a6.87,6.87,0,0,1,.68-2.92,2.91,2.91,0,0,0-2.34-1.26c-1.26,0-2.12.79-2.12,3.42v3.82c0,4.53-1.44,6.84-4.64,6.84-3.64,0-6.77-3.86-6.77-9.9C30,748.68,31.83,745.4,35.22,745.4Zm1,14.76c1.8,0,2.41-1.4,2.41-4v-3.39a10.85,10.85,0,0,1,.33-2.52,4.09,4.09,0,0,0-3.31-2c-2.09,0-3.46,2.13-3.46,5.66C32.19,757.68,34.17,760.16,36.22,760.16ZM52,757.64c2.85,0,4.58-1.87,4.58-4.17s-1.7-4.18-4.58-4.18-4.64,1.91-4.64,4.18S49.18,757.64,52,757.64Z"/><path d="M48.71,765.13c6.34,0,10.3,4.29,10.3,8.82,0,5-3.6,7.78-9.18,7.78a13,13,0,0,1-1.87-.15V768.41c-4.18.21-6.84,2.77-6.84,6.48a8.37,8.37,0,0,0,1.55,4.89L40.51,781a11.62,11.62,0,0,1-2-6.48C38.49,769.31,42.27,765.13,48.71,765.13Zm1.62,13.72c3.93,0,6.05-1.8,6.05-4.86,0-2.78-2.23-5.22-6.05-5.62Z"/><path d="M42.85,786.55H67.61v3.28h-25c-1,0-1.4.43-1.4.93a3,3,0,0,0,.07.69l-2.52.46a5,5,0,0,1-.29-1.9C38.49,787.56,40.07,786.55,42.85,786.55Z"/></svg>