<?xml version="1.0" encoding="utf-8"?>
<!-- Generator: Adobe Illustrator 26.2.1, SVG Export Plug-In . SVG Version: 6.00 Build 0)  -->
<svg version="1.1" xmlns="http://www.w3.org/2000/svg" xmlns:xlink="http://www.w3.org/1999/xlink" x="0px" y="0px"
	 viewBox="0 0 1200 2651.5" style="enable-background:new 0 0 1200 2651.5;" xml:space="preserve">
<style type="text/css">
	.st0{display:none;}
	.st1{display:inline;fill:#333333;}
	.st2{fill:none;stroke:#FFFFFF;stroke-width:4;stroke-miterlimit:10;}
	.st3{fill:none;stroke:#FFFFFF;stroke-width:4;stroke-miterlimit:10;stroke-dasharray:39.8678,19.9339;}
	.st4{fill:#FFFFFF;}
	.st5{font-family:'GoudyOldStyleT-Bold';}
	.st6{font-size:27.3288px;}
	.st7{letter-spacing:-1;}
	.st8{font-family:'GoudyOldStyleT-Regular';}
	.st9{font-size:16px;}
	.st10{fill:none;stroke:#FFFFFF;stroke-miterlimit:10;}
</style>
<g id="레이어_1" class="st0">
	<rect class="st1" width="1200" height="2651.5"/>
</g>
<g id="레이어_2" class="st0">
	
		<image style="display:inline;overflow:visible;" width="1920" height="4231" xlink:href="cam-tem.jpg"  transform="matrix(0.6267 0 0 0.6267 0 0)">
	</image>
</g>
<g id="레이어_3">
	<g id="라인">
		<g>
			<line class="st2" x1="1037.2" y1="0" x2="1037.2" y2="20"/>
			<path class="st3" d="M1037.2,39.9v257.9c0,41.4-33.6,75-75,75H780.7c-41.4,0-75,33.6-75,75v98.6c0,41.4-33.6,75-75,75H260
				c-41.4,0-75,33.6-75,75v132.2c0,41.4,33.6,75,75,75h560.2c41.4,0,75,33.6,75,75V1146c0,41.4-33.6,75-75,75H368.5
				c-41.4,0-75,33.6-75,75v408.3c0,41.4,33.6,75,75,75h619.4c41.4,0,75,33.6,75,75v219c0,41.4-33.6,75-75,75H226.4
				c-41.4,0-75,33.6-75,75v219c0,41.4,33.6,75,75,75h382.7c41.4,0,75,33.6,75,75v29.5"/>
			<line class="st2" x1="684.1" y1="2631.5" x2="684.1" y2="2651.5"/>
		</g>
	</g>
</g>
<g id="레이어_4">
	<g id="_x30_1">
		<text transform="matrix(1 0 0 1 735.213 276.3298)" class="st4 st5 st6 st7">2021 August</text>
		<text transform="matrix(1 0 0 1 736.47 326.9053)" class="st4 st8 st9">Project H - 7 Start</text>
		<line class="st10" x1="724.3" y1="293.7" x2="983.2" y2="293.7"/>
		
			<image style="overflow:visible;" width="600" height="600" xlink:href="4B47C847.png"  transform="matrix(0.5184 0 0 0.5184 831.6849 125.5505)">
		</image>
	</g>
	<g id="_x30_2">
		
			<image style="overflow:visible;" width="600" height="600" xlink:href="png source/02.png"  transform="matrix(0.5227 0 0 0.5227 299.11 221.8435)">
		</image>
		<text transform="matrix(1 0 0 1 514.6074 484.912)" class="st4 st5 st6 st7">2021 September</text>
		<text transform="matrix(1 0 0 1 515.8644 535.4874)" class="st4 st8 st9">‘Color’ Design </text>
		<line class="st10" x1="503.7" y1="502.3" x2="705.8" y2="502.3"/>
	</g>
	<g id="_x30_3">
		
			<image style="overflow:visible;" width="600" height="600" xlink:href="png source/03.png"  transform="matrix(0.4527 0 0 0.4527 49.0213 638.9998)">
		</image>
		<text transform="matrix(1 0 0 1 68.4615 571.5874)" class="st4 st5 st6 st7">2021 October</text>
		<text transform="matrix(1 0 0 1 69.7185 622.1628)" class="st4 st8 st9">‘Color’ Publishing</text>
		<polyline class="st10" points="57.5,588.9 257.3,588.9 257.3,622.2 		"/>
	</g>
	<g id="_x30_4">
		<text transform="matrix(1 0 0 1 461.1872 765.2732)" class="st4 st5 st6 st7">2021 October</text>
		<text transform="matrix(1 0 0 1 462.4441 815.8487)" class="st4 st8 st9">‘OST’ Design</text>
		<polyline class="st10" points="801.9,782.6 444.4,782.6 444.4,903.4 		"/>
		
			<image style="overflow:visible;" width="600" height="600" xlink:href="png source/04.png"  transform="matrix(0.407 0 0 0.407 679.8411 652.707)">
		</image>
	</g>
	<g id="_x30_5">
		
			<image style="overflow:visible;" width="600" height="600" xlink:href="png source/05.png"  transform="matrix(0.5721 0 0 0.5721 785.9863 967.274)">
		</image>
		<text transform="matrix(1 0 0 1 904.8568 955.0601)" class="st4 st5 st6 st7">2021 November</text>
		<text transform="matrix(1 0 0 1 906.1138 1005.6356)" class="st4 st8 st9">‘OST’ Publishing</text>
		<line class="st10" x1="893.9" y1="972.4" x2="1098.6" y2="972.4"/>
	</g>
	<g id="_x30_6">
		<text transform="matrix(1 0 0 1 540.2516 1274.2047)" class="st4 st5 st6 st7">2021 November</text>
		<text transform="matrix(1 0 0 1 541.5086 1324.7802)" class="st4 st8 st9">‘Twenty’ Design</text>
		<polyline class="st10" points="814.3,1291.6 522,1291.6 522,1221.7 		"/>
		
			<image style="overflow:visible;" width="600" height="600" xlink:href="png source/06.png"  transform="matrix(0.4899 0 0 0.4899 553.6658 955.5523)">
		</image>
	</g>
	<g id="_x30_7">
		
			<image style="overflow:visible;" width="600" height="600" xlink:href="png source/07.png"  transform="matrix(0.4758 0 0 0.4758 24.5616 988.726)">
		</image>
		<text transform="matrix(1 0 0 1 272.9483 980.3478)" class="st4 st5 st6 st7">2021 December</text>
		<text transform="matrix(1 0 0 1 274.2052 1030.9233)" class="st4 st8 st9">‘Twenty’ Publishing</text>
		<polyline class="st10" points="262,997.7 461.8,997.7 461.8,1221 		"/>
	</g>
	<g id="_x30_8">
		<text transform="matrix(1 0 0 1 102.5996 1361.2389)" class="st4 st5 st6 st7">2021 December</text>
		<text transform="matrix(1 0 0 1 103.8566 1411.8143)" class="st4 st8 st9">Project H - 7  Finished</text>
		<line class="st10" x1="91.6" y1="1378.6" x2="293.8" y2="1378.6"/>
		
			<image style="overflow:visible;" width="600" height="600" xlink:href="png source/08.png"  transform="matrix(0.5006 0 0 0.5006 211.7295 1243.1685)">
		</image>
	</g>
	<g id="_x30_9">
		
			<image style="overflow:visible;" width="600" height="600" xlink:href="png source/09.png"  transform="matrix(0.5517 0 0 0.5517 -73.8515 1416.8083)">
		</image>
		<text transform="matrix(1 0 0 1 139.1794 1730.4524)" class="st4 st5 st6 st7">2022 January</text>
		<text transform="matrix(1 0 0 1 140.4364 1781.0278)" class="st4 st8 st9">Project eivom Renewal</text>
		<line class="st10" x1="128.2" y1="1747.8" x2="307.4" y2="1747.8"/>
	</g>
	<g id="_x31_0">
		<text transform="matrix(1 0 0 1 539.9425 1543.4783)" class="st4 st5 st6 st7">2022 February</text>
		<text transform="matrix(1 0 0 1 541.1995 1594.0538)" class="st4 st8 st9">Add Existing Contents</text>
		<polyline class="st10" points="775.3,1560.8 521.5,1560.8 521.5,1779.2 		"/>
		
			<image style="overflow:visible;" width="600" height="600" xlink:href="png source/10.png"  transform="matrix(0.521 0 0 0.5548 439.0063 1624.8776)">
		</image>
	</g>
	<g id="_x31_1">
		<text transform="matrix(1 0 0 1 832.7319 1844.2419)" class="st4 st5 st6 st7">2022 March</text>
		<text transform="matrix(1 0 0 1 833.9888 1894.8175)" class="st4 st8 st9">Add Existing Contents</text>
		<polyline class="st10" points="1033.9,1861.6 819.2,1861.6 819.2,1779.2 		"/>
		
			<image style="overflow:visible;" width="600" height="600" xlink:href="png source/11.png"  transform="matrix(0.6421 0 0 0.6421 805.749 1435.1459)">
		</image>
	</g>
	<g id="_x31_2">
		<text transform="matrix(1 0 0 1 720.7993 2227.939)" class="st4 st5 st6 st7">2022 April</text>
		<text transform="matrix(1 0 0 1 722.0562 2278.5144)" class="st4 st8 st9">‘Landscape’ Design</text>
		<polyline class="st10" points="908.9,2245.3 699.3,2245.3 699.3,2148.1 		"/>
		
			<image style="overflow:visible;" width="600" height="600" xlink:href="png source/12.png"  transform="matrix(0.5 0 0 0.5 787.7534 1957.7671)">
		</image>
	</g>
	<g id="_x31_3">
		<text transform="matrix(1 0 0 1 161.8196 2021.4871)" class="st4 st5 st6 st7">2022 May</text>
		<text transform="matrix(1 0 0 1 163.0765 2072.0625)" class="st4 st8 st9">‘Landscape’ Publishing</text>
		<polyline class="st10" points="349.9,2148.1 349.9,2038.8 140.3,2038.8 		"/>
		
			<image style="overflow:visible;" width="600" height="600" xlink:href="png source/13.png"  transform="matrix(0.5345 0 0 0.5345 307.4178 1960.8739)">
		</image>
	</g>
	<g id="_x31_4">
		<text transform="matrix(1 0 0 1 257.271 2364.0837)" class="st4 st5 st6 st7">2022 June</text>
		<text transform="matrix(1 0 0 1 258.528 2414.6592)" class="st4 st8 st9">Project eivom Finished</text>
		<line class="st10" x1="199.3" y1="2381.4" x2="448.4" y2="2381.4"/>
		
			<image style="overflow:visible;" width="600" height="600" xlink:href="png source/14.png"  transform="matrix(0.577 0 0 0.577 -32.6547 2171.7803)">
		</image>
	</g>
</g>
</svg>
