<?xml version="1.0" encoding="utf-8"?>
<!-- Generator: Adobe Illustrator 26.2.1, SVG Export Plug-In . SVG Version: 6.00 Build 0)  -->
<svg version="1.1" id="레이어_1" xmlns="http://www.w3.org/2000/svg" xmlns:xlink="http://www.w3.org/1999/xlink" x="0px"
	 y="0px" viewBox="0 0 48 48" style="enable-background:new 0 0 48 48;" xml:space="preserve">
<style type="text/css">
	.st0{clip-path:url(#SVGID_00000158749640447841216560000001831560053374911159_);fill:#333333;}
	.st1{clip-path:url(#SVGID_00000158749640447841216560000001831560053374911159_);fill:#FFC200;}
</style>
<g>
	<defs>
		<path id="SVGID_1_" d="M8.4,19.7c0-7.5,5.2-13.9,12.5-15.4c8.5-1.8,17,4,18.5,12.5c0.6,3.7,0,7.1-1.5,10.5
			c-1.5,3.6-3.8,6.7-6.3,9.6c-2.2,2.6-4.7,4.9-7.3,7.1c-0.2,0.2-0.3,0.3-0.6,0c-4.8-4-9.1-8.5-12.3-13.9c-1.5-2.6-2.6-5.4-3-8.4
			C8.4,21,8.3,20.3,8.4,19.7z M24,12.1c-4.2,0-7.5,3.4-7.4,7.5c0,4.1,3.4,7.4,7.5,7.4c4.1,0,7.4-3.4,7.4-7.4
			C31.5,15.5,28.1,12.1,24,12.1z"/>
	</defs>
	<clipPath id="SVGID_00000044872399730573092620000010480396838213186735_">
		<use xlink:href="#SVGID_1_"  style="overflow:visible;"/>
	</clipPath>
	
		<rect x="3.1" y="-2.9" style="clip-path:url(#SVGID_00000044872399730573092620000010480396838213186735_);fill:#333333;" width="42.7" height="54.5"/>
	
		<rect x="3.1" y="16.2" style="clip-path:url(#SVGID_00000044872399730573092620000010480396838213186735_);fill:#FFC200;" width="42.7" height="16.2"/>
</g>
</svg>
